<?xml version="1.0" encoding="utf-8"?>
<svg xmlns="http://www.w3.org/2000/svg" width="154" height="40" viewBox="0 0 154 40" fill="none">
<g clip-path="url(#clip0_786_25708)">
<path fill-rule="evenodd" clip-rule="evenodd" d="M31.2902 0.472192C31.4273 0.191215 31.9076 -0.160004 31.9076 -0.160004H40.0021C47.7529 -0.160004 48.1358 -0.160004 48.2959 0.0288216C48.3041 0.0386328 48.3118 0.0489531 48.3201 0.0598092C48.334 0.0784824 48.3493 0.0989952 48.3708 0.120971C48.3982 0.177167 48.4476 0.233362 48.497 0.289556C48.5711 0.373848 48.6451 0.458142 48.6451 0.542435L48.7824 0.75316V3.49269V6.44292C48.7137 6.65366 48.5079 7.00488 48.3021 7.14536L48.2902 7.15467C48.0288 7.3561 48.0288 7.3561 43.569 7.3561H39.3847V32.7141H43.6376L47.8907 32.7845H48.0965C48.3708 32.9249 48.6451 33.2058 48.7137 33.4869V36.5073C48.7137 38.6161 48.6687 39.1525 48.6515 39.3549C48.6475 39.4018 48.6451 39.4312 48.6451 39.4576C48.5766 39.6683 48.0965 40.16 48.0965 40.16H39.8648L31.8389 40.0898H31.7018C31.496 39.9493 31.153 39.598 31.153 39.3874V19.9298V0.68292L31.2902 0.472192ZM64.4914 0.472192C64.6287 0.191215 65.1088 -0.160004 65.1088 -0.160004H73.2032C80.9396 -0.160004 81.327 -0.160004 81.5443 0.0321934C81.5558 0.0423204 81.5668 0.05298 81.5784 0.0642007C81.5963 0.0817197 81.6158 0.100608 81.6407 0.120971C81.7092 0.26146 81.915 0.542435 81.915 0.542435L82.0523 0.75316V20C82.0523 38.8254 82.0523 39.2467 81.9836 39.4576C81.915 39.6683 81.6407 39.9493 81.4349 40.0898L81.2976 40.16H73.2719L65.2461 40.0898H65.0403C64.8345 39.9493 64.4914 39.598 64.4229 39.3874V36.3669C64.4229 35.8363 64.421 35.4007 64.4193 35.0415C64.4133 33.6878 64.4121 33.4187 64.5376 33.2392C64.5685 33.1951 64.6072 33.1562 64.6552 33.108L64.6972 33.0654C64.8345 32.9951 65.0403 32.7141 65.0403 32.7141H65.1775H69.499H73.8206V7.28586H69.6362C65.3086 7.28586 65.1814 7.21968 64.9267 7.08733L64.903 7.07512C64.6972 6.93464 64.4914 6.7239 64.4229 6.51317C64.4177 6.49715 64.4128 6.48235 64.4084 6.46743C64.3543 6.28619 64.3543 6.08881 64.3543 3.49269V0.68292L64.4914 0.472192ZM2.96012 8.05867L2.06836 8.33965V16.9797V25.6196L2.68573 25.9007C3.64608 26.3924 4.67503 26.6733 5.70398 26.8137C6.13996 26.8635 6.88381 26.843 7.47655 26.8267C7.72302 26.8198 7.94371 26.8137 8.10487 26.8137C10.1628 26.3924 11.7405 25.2685 12.5637 23.5826C13.524 21.6158 13.3868 18.806 12.2893 16.9095C11.7405 15.926 10.9859 15.2236 9.95697 14.7319C8.99662 14.2401 8.17347 14.0997 7.00733 14.1699C5.84117 14.1699 5.08662 14.4509 4.19486 15.0128L3.85187 15.2236V11.5006V7.77769C3.85187 7.77769 3.4403 7.91819 2.96012 8.05867ZM8.37925 15.926C9.27101 16.2069 10.0942 16.7689 10.5744 17.5417C11.1231 18.3845 11.3289 19.2978 11.3289 20.5621C11.3289 22.0372 10.9859 23.0909 10.2314 23.8635C9.75119 24.3552 9.27101 24.6363 8.51645 24.9172C7.3503 25.3387 5.42959 25.1983 4.19486 24.7065L3.92046 24.5661V20.7728V16.9797L4.19486 16.7689C4.67503 16.3475 5.361 16.0664 6.04697 15.926C6.59574 15.7855 6.73293 15.7855 7.41889 15.8558C7.89907 15.8558 8.10487 15.8558 8.37925 15.926ZM130.413 15.645C130.413 15.5045 130.687 15.1533 132.265 13.3269L132.402 13.4674C133.842 11.7816 134.323 11.2899 134.323 11.2899H134.391V14.3103H138.233V15.8558H134.391V19.5787V23.5826C134.528 24.285 134.803 24.4255 135.695 24.4255C136.312 24.4255 136.998 24.285 137.684 24.0039C137.958 23.8635 138.233 23.7933 138.233 23.7933V24.5659V25.4791H138.027C136.998 25.9007 136.106 26.1113 135.146 26.1113C134.254 26.1113 133.637 25.9007 133.225 25.4791C132.882 25.1279 132.745 24.847 132.608 24.3552C132.402 23.7933 132.402 23.442 132.402 19.5084V15.7855H130.413V15.645ZM42.952 13.3269C42.952 13.3269 42.8147 13.3972 42.7462 13.4674L42.6089 13.6079V15.2235C42.6089 16.7689 42.6089 16.8391 42.6776 16.9093L42.698 16.9305C42.7257 16.9592 42.7494 16.9836 42.7757 17.0042C42.9236 17.1201 43.1621 17.1201 44.7355 17.1201H46.4504V22.5289H44.6669H42.8834L42.7462 22.6693L42.6089 22.8098V24.4255C42.6089 25.9709 42.6089 26.0411 42.6776 26.1113C42.683 26.1169 42.6882 26.1224 42.6929 26.1278L42.7095 26.1469C42.7173 26.156 42.7247 26.1648 42.7324 26.1728C42.875 26.322 43.1736 26.322 48.9198 26.322C54.5757 26.322 55.0068 26.322 55.1199 26.1325C55.1291 26.1167 55.1363 26.0999 55.1441 26.0816C55.1494 26.0687 55.1552 26.0552 55.1622 26.0411C55.2308 25.9005 55.2308 25.76 55.1622 24.3552C55.1622 22.9504 55.1622 22.8098 55.0935 22.7396C54.9564 22.5289 54.8877 22.5289 53.0357 22.5289H51.3207V17.1201H53.0357C54.5866 17.1201 54.8852 17.1201 55.0149 16.9721C55.0458 16.9369 55.0671 16.8932 55.0935 16.8391C55.1622 16.6986 55.1622 16.5582 55.0935 15.1533C55.0935 13.7484 55.0935 13.6079 55.025 13.5377C55.0181 13.527 55.0124 13.5169 55.007 13.5073C55.0011 13.4972 54.9957 13.4876 54.9895 13.4785C54.8857 13.3269 54.5606 13.3269 48.7826 13.3269H42.952ZM57.9062 13.397C57.9062 13.397 57.8784 13.3617 57.8408 13.5307L57.9062 13.397ZM57.8396 13.5365L57.8374 13.5375L57.8408 13.5307L57.8396 13.5365ZM57.8396 13.5365C57.9754 13.4673 58.0511 13.4673 59.6209 13.4673C61.4046 13.4673 61.4731 13.4673 61.6789 13.678C61.7475 13.7482 62.7079 15.0829 63.8055 16.6282L65.8633 19.438V16.558C65.8633 13.7482 65.8633 13.678 65.9318 13.6077C65.9649 13.574 65.9927 13.5456 66.0237 13.5218C66.187 13.397 66.4456 13.397 68.0584 13.397C69.7733 13.397 69.8419 13.397 69.9791 13.4673C69.9976 13.4767 70.0147 13.4833 70.0309 13.4895C70.0468 13.4955 70.0615 13.5012 70.0752 13.5088C70.2535 13.6071 70.2535 14.0286 70.2535 19.9298C70.2535 25.969 70.2535 26.1112 70.1849 26.2516L70.1638 26.2807C70.1297 26.3279 70.1019 26.3662 70.0677 26.3974C69.919 26.5327 69.6472 26.5327 68.1956 26.5327L66.5492 26.3922H66.3434C66.2064 26.3218 65.726 25.7599 64.0798 23.5824L62.0218 20.9131V23.5122C61.9565 26.2561 61.9534 26.2582 61.7754 26.3737L61.7646 26.3808L61.7475 26.3922C61.6789 26.4625 61.5417 26.4625 59.8267 26.4625C57.8374 26.4625 57.8374 26.4625 57.7003 26.1814C57.6316 26.0409 57.6316 25.9005 57.6316 19.8612V19.8594C57.6316 15.2305 57.7583 13.9084 57.8396 13.5365ZM91.4495 13.7483C90.6265 13.8186 89.7348 14.0293 88.9801 14.4508C87.814 15.0127 86.785 16.0664 86.3049 17.1902C85.8247 18.2439 85.6189 19.5083 85.756 20.843C86.0305 23.7933 88.0884 25.9005 91.1066 26.322C91.6553 26.3922 92.8216 26.3922 93.4388 26.322C93.8407 26.322 94.132 26.2467 94.5016 26.1513C94.6368 26.1164 94.7827 26.0787 94.948 26.0409L95.3596 25.9005V24.9874V24.0742C95.3596 24.0742 95.1538 24.0742 94.948 24.2146C94.4678 24.4255 93.7133 24.5659 93.0959 24.6361C92.41 24.7063 91.4495 24.6361 90.9008 24.5659C90.4207 24.4255 90.0091 24.2848 89.5975 24.0039C89.1174 23.723 88.9116 23.5122 88.5685 23.0907C87.8826 22.2478 87.5397 21.2644 87.5397 20.0702C87.5397 17.8928 88.7743 16.2069 90.8323 15.6449C91.0247 15.5886 91.1399 15.5549 91.2575 15.5347C91.4336 15.5044 91.6147 15.5044 92.0669 15.5044C92.6843 15.5044 92.9587 15.5044 93.3017 15.5747C93.4252 15.6028 93.5514 15.6309 93.6776 15.659C94.1824 15.7714 94.6874 15.8837 95.0167 15.9961L95.291 16.1367V15.2235V14.3103L94.948 14.1698C94.5364 14.0293 93.7819 13.8888 93.3017 13.8186C93.13 13.8186 92.918 13.8117 92.6929 13.8044C92.199 13.7884 91.6424 13.7703 91.3124 13.8186L91.4495 13.7483ZM120.261 15.2938C121.084 14.4509 122.25 13.8889 123.416 13.7484C123.759 13.6079 124.582 13.6782 124.994 13.7484C127.12 14.2401 128.698 15.9962 129.11 18.3845C129.11 18.6043 129.116 18.872 129.124 19.1556V19.1581C129.139 19.7808 129.157 20.4795 129.11 20.9132C128.972 22.0372 128.561 23.0909 127.944 23.9337C127.601 24.4255 127.052 24.9874 126.64 25.2685C126.023 25.7602 125.268 26.1113 124.514 26.2518C123.691 26.4626 122.387 26.3924 121.358 26.1113C121.084 26.0411 120.329 25.6898 120.124 25.5494C120.055 25.4791 119.986 25.4791 119.986 25.4791V28.1485V30.8177H118.134V14.1699H119.986V15.5748L120.261 15.2938ZM126.023 16.3475C125.68 15.9962 124.994 15.645 124.514 15.5748L124.445 15.5045C124.321 15.5045 124.158 15.4981 123.981 15.4911C123.573 15.4749 123.086 15.4555 122.799 15.5045C122.445 15.5649 122.192 15.6773 121.823 15.8417L121.821 15.8425L121.816 15.845L121.813 15.846C121.756 15.8714 121.696 15.8981 121.633 15.926C121.084 16.1367 120.672 16.488 120.261 16.9095L119.986 17.1904V23.723H120.124C120.466 24.0041 121.015 24.285 121.564 24.4255C122.25 24.7065 122.524 24.7065 123.279 24.7065C123.896 24.7065 124.034 24.7065 124.308 24.6363C124.994 24.4255 125.543 24.1446 126.023 23.6528C126.64 23.0206 127.052 22.248 127.258 21.1241C127.326 20.6323 127.326 19.2978 127.258 18.806C127.052 17.7523 126.64 16.9095 126.023 16.3475ZM145.23 13.7483C145.23 13.7483 144.613 13.8186 144.407 13.8888C141.389 14.5913 139.537 17.12 139.742 20.4215C139.811 22.1074 140.36 23.3718 141.32 24.4255C142.143 25.2683 143.035 25.76 144.201 26.1113C144.887 26.322 145.367 26.322 146.19 26.322C147.219 26.322 147.974 26.1113 148.866 25.6898C150.1 25.0576 150.924 24.2848 151.541 23.0205C151.815 22.4585 151.952 21.8965 152.09 21.2644C152.158 20.7024 152.158 19.438 152.09 18.8059C151.884 17.4713 151.335 16.3473 150.443 15.5044C149.414 14.4508 148.111 13.8888 146.533 13.7483H145.23ZM146.876 15.4342C148.043 15.6449 148.934 16.3473 149.551 17.2606C150.1 18.1034 150.306 18.8761 150.306 20.0702C150.306 20.843 150.306 21.1239 150.1 21.7561C149.483 23.723 147.768 24.9172 145.71 24.7766C143.584 24.6361 142.006 23.2313 141.663 21.0537C141.594 20.4917 141.594 19.5083 141.663 19.0167C141.732 18.5952 141.937 18.0332 142.074 17.6819C142.692 16.4878 143.789 15.6449 145.093 15.4342C145.573 15.3639 146.465 15.3639 146.876 15.4342ZM99.9557 16.6986C100.779 14.8723 101.808 14.1698 103.934 13.8186L104.003 13.8889H104.209H104.346V15.9962H104.003C102.7 16.0664 101.876 16.4176 101.122 17.1904C100.573 17.7523 100.299 18.2441 100.024 19.1571C99.7499 19.9298 99.7499 20.0704 99.7499 23.1611V25.9709H98.8582H97.9664V14.2401H98.8582H99.7499V15.7152V17.1904L99.9557 16.6986ZM20.4521 14.0996H20.0405C19.0116 14.2401 18.0512 14.6616 17.2967 15.2235C16.8851 15.5045 16.2677 16.2069 15.9933 16.6284C15.5817 17.3308 15.3074 17.963 15.1016 18.8762C15.033 19.368 15.033 19.4382 15.033 20.3513C15.033 21.405 15.033 21.6859 15.2388 22.3885C15.8561 24.847 17.7083 26.4626 20.3835 26.8137H22.5786C23.4704 26.7435 24.7052 26.3922 25.5969 26.0411H25.8027V24.9874V24.0742L25.3226 24.3552C24.0878 24.9874 22.6472 25.2685 21.2067 25.1981C20.5893 25.1981 20.2463 25.1279 19.6976 24.9172C18.3942 24.4255 17.4338 23.442 17.0909 21.9669C17.0634 21.7983 17.036 21.6073 17.0086 21.4162C16.9674 21.1296 16.9262 20.843 16.8851 20.6323V20.4917H26.763V20.2108C26.763 19.7893 26.6944 19.0167 26.5572 18.525C25.9398 16.0664 24.2936 14.3806 22.0298 14.0294H20.5208L20.4521 14.0996ZM21.8241 15.7152C22.5786 15.8558 23.2646 16.1367 23.7447 16.6284C24.2936 17.1904 24.7052 18.0332 24.7737 18.8762V19.1571H20.8637H16.8851C16.8851 19.0167 17.0223 18.4547 17.1595 18.1738C17.4338 17.5415 17.9141 16.9093 18.4628 16.5582C19.3545 15.926 20.6579 15.645 21.7554 15.7855L21.8241 15.7152ZM104.884 14.3804C104.847 14.2885 104.827 14.2399 104.827 14.2399V14.3804H104.884ZM107.227 20.0702C106.1 17.3359 105.126 14.9693 104.884 14.3804H105.787H106.747L108.599 18.9463C109.628 21.475 110.52 23.5824 110.52 23.5824C110.529 23.5918 110.535 23.6039 110.543 23.6056C110.592 23.6157 110.73 23.198 112.509 18.9463C112.741 18.3775 112.972 17.8005 113.185 17.2695C113.604 16.2272 113.951 15.3621 114.087 15.0829L114.43 14.3102H115.322H116.214C116.17 14.3102 115.54 15.8247 114.591 18.1066C114.052 19.4023 113.411 20.9453 112.715 22.599L109.285 30.8175H108.394H107.502C107.527 30.7661 107.763 30.2063 108.063 29.4967C108.583 28.2678 109.292 26.5891 109.423 26.3218L109.628 25.8301L107.227 20.0702Z" fill="white"/>
</g>
<defs>
<clipPath id="clip0_786_25708">
<rect width="152.88" height="40" fill="white" transform="translate(0.533203)"/>
</clipPath>
</defs>
</svg>