<?xml version="1.0" encoding="utf-8"?>
<svg xmlns="http://www.w3.org/2000/svg" width="192" height="40" viewBox="0 0 192 40" fill="none">
<mask id="mask0_786_25672" style="mask-type:luminance" maskUnits="userSpaceOnUse" x="2" y="5" width="30" height="30">
<path d="M2.23047 5.07936H31.2186V34.2857H2.23047V5.07936Z" fill="white"/>
</mask>
<g mask="url(#mask0_786_25672)">
<path d="M30.907 21.2649C30.1034 28.2688 24.0915 33.7946 16.8395 33.7946C9.02704 33.7946 2.79688 27.495 2.79688 19.6825C2.79688 11.87 9.02703 5.54067 16.7899 5.54067C21.8743 5.54067 26.3782 8.16964 28.8385 12.1627L24.4338 15.3522C22.4596 12.4306 19.662 10.9921 16.8395 10.9921C12.2661 10.9921 8.64013 14.8859 8.64013 19.7073C8.64013 24.499 12.2661 28.3433 16.8395 28.3433C20.9516 28.3433 24.3842 25.377 25.1629 21.2649H30.907Z" fill="white"/>
</g>
<path d="M52.3449 24.0873C52.3449 29.3651 47.9154 33.7202 42.6078 33.7202C37.3052 33.7202 33.0195 29.3651 33.0195 24.0873C33.0195 18.7302 37.3052 14.4246 42.6078 14.4246C47.9154 14.4246 52.3449 18.755 52.3449 24.0873ZM47.0374 24.0873C47.0374 21.4831 45.1376 19.6081 42.6078 19.6081C40.2219 19.6081 38.2775 21.4831 38.2775 24.0873C38.2775 26.7163 40.2219 28.5615 42.6078 28.5615C45.1177 28.5615 47.0374 26.7361 47.0374 24.0873Z" fill="white"/>
<path d="M54.7988 8.61111C54.7988 7.14781 56.1877 5.76389 57.7899 5.76389C59.5459 5.76389 60.905 7.12301 60.905 8.61111C60.905 10.2133 59.5459 11.5774 57.7899 11.5774C56.1877 11.5774 54.7988 10.2133 54.7988 8.61111ZM60.4437 33.3333H55.2353V14.8363H60.4437V33.3333Z" fill="white"/>
<path d="M82.7614 33.3333H77.6026V24.1121C77.6026 21.1409 75.8765 19.6329 73.7584 19.6329C71.4469 19.6329 69.3288 21.1409 69.3288 24.1121V33.3333H64.0957V14.8363H69.304V16.126C70.3259 14.9603 72.4935 14.4494 74.1701 14.4494C79.2346 14.4494 82.7366 18.7798 82.7366 24.1121V33.3333H82.7614Z" fill="white"/>
<path d="M86.9219 33.3333V6.03175H96.411C102.81 6.03175 107.725 10.8234 107.725 16.7609C107.725 23.7698 103.078 28.5863 95.8504 28.5863H92.5915V33.3085H86.9219V33.3333ZM95.7066 23.4772C99.7443 23.4772 102.006 21.0218 102.006 17.2222C102.006 13.8889 99.9874 11.1905 96.0439 11.1905H92.5915V23.502H95.7066V23.4772Z" fill="white"/>
<path d="M127.631 29.876C126.049 32.2123 122.79 33.7202 119.506 33.7202C113.931 33.7202 109.477 29.3651 109.477 24.0873C109.477 18.7302 113.762 14.4246 119.065 14.4246C123.643 14.4246 127.17 17.4901 128.291 20.9474L117.949 28.3433C118.435 28.5367 118.946 28.5615 119.482 28.5615C121.064 28.5615 122.621 28.006 123.47 26.6915L127.631 29.876ZM114.883 25.3026L121.619 20.5109C120.89 19.9504 120.042 19.6329 119.065 19.6329C116.684 19.6329 114.734 21.5079 114.734 24.1121C114.734 24.5238 114.759 24.9355 114.883 25.3026Z" fill="white"/>
<path d="M148.902 6.03175V33.3333H143.694V32.0189C142.89 33.0903 140.871 33.745 139.19 33.745C134.13 33.745 130.117 29.3899 130.117 24.1121C130.117 18.755 134.254 14.4494 139.19 14.4494C140.846 14.4494 142.89 15.253 143.694 16.126V6.05159H148.902V6.03175ZM143.937 24.0873C143.937 21.4831 142.136 19.6081 139.725 19.6081C137.344 19.6081 135.395 21.4831 135.395 24.0873C135.395 26.7163 137.344 28.5615 139.725 28.5615C142.136 28.5615 143.937 26.7361 143.937 24.0873Z" fill="white"/>
<path d="M152.137 8.61111C152.137 7.14781 153.526 5.76389 155.133 5.76389C156.884 5.76389 158.248 7.12301 158.248 8.61111C158.248 10.2133 156.884 11.5774 155.133 11.5774C153.526 11.5774 152.137 10.2133 152.137 8.61111ZM157.787 33.3333H152.578V14.8363H157.787V33.3333Z" fill="white"/>
<path d="M179.467 14.8363V33.3333H174.259V32.0188C173.456 33.0903 171.437 33.745 169.755 33.745C164.696 33.745 160.678 29.3899 160.678 24.1121C160.678 18.755 164.815 14.4494 169.755 14.4494C171.412 14.4494 173.456 15.253 174.259 16.126V14.8363H179.467ZM174.477 24.0873C174.477 21.4831 172.677 19.6081 170.266 19.6081C167.88 19.6081 165.936 21.4831 165.936 24.0873C165.936 26.7163 167.88 28.5615 170.266 28.5615C172.677 28.5615 174.477 26.7361 174.477 24.0873Z" fill="white"/>
<path d="M182.021 28.125H187.23V33.3333H182.021V28.125Z" fill="white"/>
</svg>