<?xml version="1.0" encoding="utf-8"?>
<svg xmlns="http://www.w3.org/2000/svg" width="171" height="40" viewBox="0 0 171 40" fill="none">
<g clip-path="url(#clip0_786_25736)">
<mask id="mask0_786_25736" style="mask-type:luminance" maskUnits="userSpaceOnUse" x="0" y="0" width="171" height="40">
<path d="M0.269531 0H170.27V40H0.269531V0Z" fill="white"/>
</mask>
<g mask="url(#mask0_786_25736)">
<path d="M25.3267 29.1057L18.1224 32.2021V31.8921C16.7331 32.2436 15.1945 32.4464 13.7367 32.5114C6.96239 32.4464 1.58525 28.9414 1.52239 24.7707V23.2214C3.74739 26.42 8.27739 28.5629 13.7367 28.4857C15.5845 28.5629 17.4738 28.2743 19.0617 27.8664L19.6881 26.3179C17.8052 26.8736 15.7495 27.26 13.7374 27.2464C6.96239 27.26 1.58525 23.755 1.5231 19.5064V18.2679C3.74739 21.225 8.26739 23.3679 13.7374 23.2221C16.1981 23.3686 18.6045 22.8564 20.6274 21.9829L20.9417 20.435C18.9645 21.4657 16.4024 22.0643 13.7374 21.9829C6.96239 22.0643 1.58525 18.5593 1.5231 14.2429V13.0036C3.74739 16.0293 8.27739 18.1729 13.7374 18.2679C16.8402 18.1729 19.7824 17.3621 22.1945 16.1L22.5074 14.2421C20.3188 15.8457 17.1231 16.8793 13.7374 17.0286C6.96239 16.8793 1.58596 13.3736 1.5231 8.97857C1.58525 4.79857 6.96239 1.29286 13.7374 1.23786C17.776 1.29357 21.5267 2.69357 23.7602 4.95357L23.9781 5.31143L25.5567 5.31857L25.3267 4.95357C23.1052 1.97 18.6624 0 13.7374 0C6.24096 0 0.269531 4.08429 0.269531 8.97929V25.08C0.533103 29.8586 6.3681 33.7493 13.7374 33.7493C18.6045 33.7493 22.9788 31.8564 25.3267 29.1057Z" fill="white"/>
<path d="M22.3956 40L24.9242 29.375L17.6549 32.5L22.0806 14.0629H13.5449L15.7571 5H42.9421L40.7292 14.0629H31.8792L29.9821 19.0629L39.7806 15L22.3956 40ZM26.8214 27.1871L25.5571 33.4371L35.9878 17.8129L27.4528 21.5629L31.2464 12.8129H39.7806L41.3614 6.25H16.7049L15.1242 12.8129H23.6599L19.5499 30.3129L26.8206 27.1886L26.8214 27.1871ZM56.2021 10.955C56.1254 12.0312 55.734 12.8788 55.0278 13.4979C54.3221 14.1155 53.3921 14.4243 52.2378 14.4243C50.9749 14.4243 49.9818 13.9926 49.2585 13.1293C48.5352 12.266 48.1733 11.081 48.1728 9.57429V8.96215C48.1728 8.00072 48.3394 7.15334 48.6728 6.42C49.0071 5.68762 49.484 5.12572 50.1035 4.73429C50.7235 4.34191 51.444 4.14596 52.2649 4.14643C53.4011 4.14643 54.3166 4.45572 55.0114 5.07429C55.7056 5.69191 56.1071 6.55977 56.2156 7.67786H54.1864C54.1364 7.03215 53.9594 6.56381 53.6556 6.27286C53.3509 5.98238 52.8873 5.83715 52.2649 5.83715C51.5887 5.83715 51.0825 6.0831 50.7464 6.575C50.4106 7.06786 50.238 7.83167 50.2285 8.86643V9.62215C50.229 10.7031 50.3902 11.4931 50.7121 11.9921C51.0349 12.4921 51.5437 12.7419 52.2385 12.7414C52.8652 12.7414 53.3328 12.5962 53.6414 12.3057C53.9504 12.0143 54.1275 11.5643 54.1728 10.9557L56.2021 10.955ZM66.6806 9.51215C66.6806 10.4979 66.5092 11.3612 66.1664 12.1021C65.8235 12.8445 65.333 13.4171 64.6949 13.82C64.0568 14.2229 63.3252 14.4243 62.4999 14.4243C61.6842 14.4243 60.9559 14.2252 60.3149 13.8271C59.6749 13.4281 59.179 12.8591 58.8271 12.12C58.4752 11.381 58.2971 10.5298 58.2928 9.56643V9.07215C58.2928 8.08738 58.4675 7.22072 58.8171 6.47215C59.1666 5.72357 59.6604 5.14857 60.2985 4.74715C60.9366 4.34715 61.6661 4.14691 62.4871 4.14643C63.3075 4.14643 64.0368 4.34667 64.6749 4.74715C65.313 5.14857 65.8068 5.72357 66.1563 6.47215C66.5059 7.22072 66.6806 8.085 66.6806 9.065V9.51215ZM64.6242 9.05858C64.6242 8.00953 64.4394 7.21262 64.0699 6.66786C63.6999 6.12262 63.1723 5.85 62.4871 5.85C61.8056 5.85 61.2799 6.11905 60.9099 6.65715C60.5404 7.19524 60.3535 7.98453 60.3492 9.025V9.51286C60.3492 10.5343 60.534 11.3264 60.9035 11.8893C61.273 12.4531 61.8052 12.735 62.4999 12.735C63.1809 12.735 63.7042 12.4636 64.0699 11.9207C64.4352 11.3779 64.6199 10.5864 64.6242 9.54643V9.05858ZM71.3678 14.2871H69.3392V4.28357H71.3678V14.2871ZM82.3142 14.2871H80.2842L76.3335 7.70572V14.2871H74.3042V4.28357H76.3335L80.2914 10.8793V4.28357H82.3142V14.2871ZM92.3599 5.95357H89.3435V14.2871H87.3142V5.95357H84.3371V4.28357H92.3599V5.95357ZM100.498 9.95215H96.6021V12.6314H101.175V14.2871H94.5721V4.28357H101.161V5.95357H96.6021V8.33715H100.498V9.95215ZM105.45 12.6314H109.759V14.2871H103.421V4.28357H105.45V12.6314ZM117.904 9.95143H114.008V12.6314H118.581V14.2871H111.979V4.28357H118.567V5.95357H114.008V8.33715H117.904V9.95143ZM128.62 13.0229C128.255 13.4671 127.738 13.8117 127.071 14.0564C126.404 14.3021 125.664 14.425 124.852 14.425C124 14.425 123.252 14.236 122.609 13.8579C121.967 13.4798 121.471 12.9312 121.121 12.2121C120.772 11.4931 120.593 10.6481 120.583 9.67715V8.99643C120.583 7.99786 120.749 7.13357 121.081 6.40357C121.413 5.6731 121.89 5.11429 122.514 4.72715C123.139 4.34 123.871 4.14643 124.71 4.14643C125.878 4.14643 126.791 4.42929 127.45 4.995C128.108 5.56072 128.498 6.38405 128.62 7.465H126.644C126.554 6.89215 126.355 6.4731 126.046 6.20786C125.737 5.94215 125.312 5.80929 124.771 5.80929C124.081 5.80929 123.555 6.07262 123.194 6.59929C122.833 7.12596 122.651 7.90929 122.646 8.94929V9.58786C122.646 10.6369 122.843 11.4293 123.235 11.965C123.627 12.5007 124.202 12.7686 124.96 12.7686C125.723 12.7686 126.266 12.6038 126.59 12.2743V10.55H124.743V9.03143H128.62V13.0229ZM134.965 10.6257H133.349V14.2871H131.319V4.28357H134.979C136.143 4.28357 137.04 4.54715 137.671 5.07429C138.303 5.60048 138.618 6.34453 138.618 7.30643C138.618 7.98929 138.473 8.55834 138.182 9.01358C137.891 9.46977 137.45 9.83286 136.859 10.1029L138.99 14.1907V14.2871H136.812L134.965 10.6257ZM133.349 8.95572H134.985C135.494 8.95572 135.889 8.82405 136.169 8.56072C136.449 8.29691 136.589 7.93381 136.589 7.47143C136.589 7 136.457 6.62905 136.193 6.35858C135.929 6.08858 135.525 5.95357 134.979 5.95357H133.349L133.349 8.95572ZM146.777 12.2257H143.218L142.542 14.2871H140.384L144.051 4.28357H145.931L149.618 14.2871H147.46L146.777 12.2257ZM143.766 10.5571H146.229L144.991 6.81143L143.766 10.5571ZM153.623 10.7629V14.2871H151.594V4.28357H155.436C156.175 4.28357 156.826 4.42119 157.387 4.69643C157.949 4.97072 158.381 5.36119 158.683 5.86786C158.985 6.37357 159.136 6.94953 159.136 7.59572C159.136 8.57572 158.806 9.34834 158.145 9.91357C157.484 10.4802 156.57 10.7633 155.402 10.7629H153.623ZM153.623 9.09286H155.436C155.972 9.09286 156.382 8.96477 156.663 8.70858C156.945 8.45143 157.086 8.085 157.086 7.60929C157.086 7.11881 156.944 6.72238 156.66 6.42C156.376 6.11857 155.984 5.9631 155.483 5.95357H153.623V9.09286ZM169.601 14.2871H167.571V10H163.615V14.2871H161.585V4.28357H163.615V8.33715H167.571V4.28357H169.601V14.2871Z" fill="white"/>
<path d="M54.844 23.2157V22.1129H49.0275V22.8H53.9918V23.5929C53.9918 23.7964 53.9918 24 53.9825 24.1929L48.8047 24.4164L48.9311 25.1229L53.944 24.8614C53.8956 25.4958 53.8049 26.1263 53.6725 26.7486L54.4954 26.845C54.7175 25.8679 54.834 24.58 54.844 23.2157Z" fill="white"/>
<path d="M48.127 28.5386H55.7627V27.8514H51.8912V25.6936H51.0298V27.8514H48.127V28.5386ZM62.3527 27.4357L62.2655 26.7286C61.2398 26.9229 59.6041 26.99 58.4234 26.99H58.172V25.0743H61.3362V22.0164H57.282V22.7129H60.4841V24.3871H57.3198V27.7157H58.3748C60.0877 27.6964 61.472 27.58 62.3527 27.4357ZM63.8627 21.2514H63.0012V29.71H63.8627V21.2514ZM72.1755 25.3164H73.5305V24.6093H72.1755V21.2521H71.3141V29.7093H72.1755V25.3164Z" fill="white"/>
<path fill-rule="evenodd" clip-rule="evenodd" d="M67.9181 21.8514C66.4274 21.8514 65.7695 23.1679 65.7695 24.8421C65.7695 26.5157 66.4274 27.8321 67.9181 27.8321C69.4088 27.8321 70.0567 26.5157 70.0567 24.8514C70.0567 23.1679 69.4081 21.8514 67.9181 21.8514ZM67.9181 22.5871C68.7695 22.5871 69.2145 23.5357 69.2145 24.8514C69.2145 26.1486 68.7695 27.0964 67.9181 27.0964C67.066 27.0964 66.631 26.1486 66.631 24.8514C66.631 23.5357 67.0667 22.5871 67.9181 22.5871Z" fill="white"/>
</g>
</g>
<defs>
<clipPath id="clip0_786_25736">
<rect width="170" height="40" fill="white" transform="translate(0.269531)"/>
</clipPath>
</defs>
</svg>