<?xml version="1.0" encoding="utf-8"?>
<svg xmlns="http://www.w3.org/2000/svg" width="171" height="40" viewBox="0 0 171 40" fill="none">
<g clip-path="url(#clip0_786_25690)">
<mask id="mask0_786_25690" style="mask-type:luminance" maskUnits="userSpaceOnUse" x="0" y="0" width="171" height="40">
<path d="M0.8125 0H170.812V40H0.8125V0Z" fill="white"/>
</mask>
<g mask="url(#mask0_786_25690)">
<path d="M56.6992 10.955C56.623 12.0312 56.2318 12.8788 55.5256 13.4979C54.8199 14.1155 53.8897 14.4243 52.7349 14.4243C51.4721 14.4243 50.4792 13.9926 49.7564 13.1293C49.0321 12.2669 48.6699 11.0819 48.6699 9.57429V8.96215C48.6699 8.00072 48.8368 7.15334 49.1706 6.42C49.5044 5.68762 49.9811 5.12572 50.6006 4.73429C51.2211 4.34191 51.9418 4.14596 52.7628 4.14643C53.8985 4.14643 54.814 4.45572 55.5092 5.07429C56.203 5.69191 56.6044 6.55977 56.7135 7.67786H54.6842C54.6342 7.03215 54.4571 6.56381 54.1528 6.27286C53.848 5.98238 53.3847 5.83715 52.7628 5.83715C52.0861 5.83715 51.5799 6.0831 51.2442 6.575C50.908 7.06786 50.7354 7.83167 50.7263 8.86643V9.62215C50.7263 10.7031 50.8875 11.4931 51.2099 11.9921C51.5328 12.4921 52.0414 12.7419 52.7356 12.7414C53.3623 12.7414 53.8302 12.5962 54.1392 12.3057C54.4483 12.0143 54.6252 11.5643 54.6699 10.9557L56.6992 10.955ZM67.1778 9.51215C67.1778 10.4979 67.0064 11.3612 66.6635 12.1021C66.3211 12.8445 65.8306 13.4171 65.1921 13.82C64.5544 14.2229 63.823 14.4243 62.9978 14.4243C62.1816 14.4243 61.453 14.2252 60.8121 13.8271C60.1725 13.4281 59.6766 12.8591 59.3242 12.12C58.9723 11.3805 58.7942 10.5293 58.7899 9.56643V9.07215C58.7899 8.08738 58.9647 7.22072 59.3142 6.47215C59.6637 5.72357 60.1578 5.14857 60.7963 4.74715C61.4344 4.34715 62.1637 4.14691 62.9842 4.14643C63.8052 4.14643 64.5347 4.34667 65.1728 4.74715C65.8109 5.14857 66.3044 5.72357 66.6535 6.47215C67.0035 7.22072 67.1785 8.085 67.1785 9.065L67.1778 9.51215ZM65.1221 9.05857C65.1221 8.00953 64.9373 7.21262 64.5678 6.66786C64.1978 6.12262 63.6699 5.85 62.9842 5.85C62.3033 5.85 61.7778 6.11905 61.4078 6.65715C61.0378 7.19524 60.8509 7.98453 60.8471 9.025V9.51286C60.8471 10.5343 61.0318 11.3264 61.4013 11.8893C61.7709 12.4531 62.303 12.735 62.9978 12.735C63.6783 12.735 64.2016 12.4636 64.5678 11.9207C64.9325 11.3779 65.1173 10.5864 65.1221 9.54643V9.05857ZM71.8649 14.2871H69.8364V4.28357H71.8649V14.2871ZM82.8113 14.2871H80.7814L76.8314 7.70572V14.2871H74.8021V4.28357H76.8314L80.7885 10.8793V4.28357H82.8113V14.2871ZM92.8578 5.95357H89.8406V14.2871H87.8113V5.95357H84.8349V4.28357H92.8578V5.95357ZM100.996 9.95215H97.0999V12.6314H101.672V14.2871H95.0699V4.28357H101.659V5.95357H97.0999V8.33715H100.996V9.95215ZM105.948 12.6314H110.257V14.2871H103.918V4.28357H105.948V12.6314ZM118.402 9.95143H114.506V12.6314H119.078V14.2871H112.476V4.28357H119.065V5.95357H114.506V8.33715H118.402V9.95143ZM129.118 13.0229C128.752 13.4671 128.235 13.8117 127.568 14.0564C126.901 14.3021 126.162 14.425 125.349 14.425C124.497 14.425 123.749 14.236 123.107 13.8579C122.464 13.4798 121.968 12.9312 121.618 12.2121C121.269 11.4931 121.09 10.6481 121.081 9.67715V8.99643C121.081 7.99786 121.247 7.13357 121.578 6.40357C121.909 5.6731 122.387 5.11429 123.012 4.72715C123.636 4.34 124.368 4.14643 125.208 4.14643C126.375 4.14643 127.288 4.42929 127.947 4.995C128.606 5.56072 128.996 6.38405 129.118 7.465H127.142C127.052 6.89215 126.852 6.4731 126.543 6.20786C126.234 5.94215 125.809 5.80929 125.269 5.80929C124.578 5.80929 124.052 6.07262 123.691 6.59929C123.331 7.12596 123.149 7.90929 123.144 8.94929V9.58786C123.144 10.6369 123.34 11.4293 123.732 11.965C124.125 12.5007 124.7 12.7686 125.458 12.7686C126.22 12.7686 126.763 12.6038 127.088 12.2743V10.55H125.241V9.03143H129.118V13.0229ZM135.463 10.6257H133.846V14.2871H131.816V4.28357H135.476C136.64 4.28357 137.538 4.54715 138.168 5.07429C138.8 5.60048 139.116 6.34453 139.116 7.30643C139.116 7.98929 138.97 8.55834 138.679 9.01358C138.388 9.46977 137.948 9.83286 137.357 10.1029L139.488 14.1907V14.2871H137.309L135.463 10.6257ZM133.846 8.95572H135.483C135.992 8.95572 136.387 8.82405 136.667 8.56072C136.947 8.29691 137.086 7.93381 137.086 7.47143C137.086 7 136.954 6.62905 136.691 6.35857C136.426 6.08858 136.022 5.95357 135.476 5.95357H133.846L133.846 8.95572ZM147.274 12.2257H143.716L143.04 14.2871H140.881L144.548 4.28357H146.428L150.115 14.2871H147.958L147.274 12.2257ZM144.264 10.5571H146.726L145.489 6.81143L144.264 10.5571ZM154.12 10.7629V14.2871H152.091V4.28357H155.933C156.673 4.28357 157.323 4.42119 157.884 4.69643C158.446 4.97072 158.878 5.36119 159.18 5.86786C159.482 6.37357 159.633 6.94953 159.633 7.59572C159.633 8.57572 159.303 9.34834 158.643 9.91357C157.981 10.4802 157.067 10.7633 155.899 10.7629H154.12ZM154.12 9.09286H155.933C156.47 9.09286 156.879 8.96477 157.161 8.70857C157.443 8.45143 157.584 8.085 157.583 7.60929C157.583 7.11881 157.442 6.72238 157.158 6.42C156.873 6.11857 156.481 5.9631 155.981 5.95357H154.12V9.09286ZM170.098 14.2871H168.069V10H164.112V14.2871H162.082V4.28357H164.112V8.33715H168.069V4.28357H170.098V14.2871Z" fill="white"/>
<path d="M54.1275 23.1157H51.9818V29.0321H50.7961V23.1157H48.6696V22.1521H54.1275V23.1157ZM56.4375 24.4771C56.6103 24.2683 56.828 24.1012 57.0743 23.9883C57.3207 23.8754 57.5894 23.8196 57.8604 23.825C58.9508 23.825 59.5032 24.4471 59.5175 25.6914V29.0321H58.3704V25.7343C58.3704 25.3814 58.2942 25.1317 58.1418 24.985C57.988 24.8388 57.7632 24.7657 57.4675 24.7657C57.0075 24.7657 56.6642 24.9702 56.4375 25.3793V29.0321H55.2889V21.7743H56.4375V24.4771ZM63.3175 29.1264C62.5899 29.1264 61.9999 28.8974 61.5475 28.4393C61.0956 27.9807 60.8696 27.3705 60.8696 26.6086V26.4664C60.8696 25.956 60.9682 25.5 61.1654 25.0986C61.3473 24.7139 61.6346 24.3887 61.9939 24.1607C62.3506 23.9367 62.7642 23.8202 63.1854 23.825C63.8811 23.825 64.4189 24.0469 64.7989 24.4907C65.178 24.9355 65.3677 25.564 65.3682 26.3764V26.84H62.0268C62.062 27.2619 62.2032 27.5957 62.4504 27.8414C62.6975 28.0871 63.0085 28.21 63.3832 28.21C63.9094 28.21 64.338 27.9971 64.6689 27.5714L65.2882 28.1629C65.0828 28.4688 64.7995 28.7144 64.4675 28.8743C64.1088 29.0461 63.7152 29.1324 63.3175 29.1264ZM63.1804 24.7457C62.8651 24.7457 62.6108 24.8562 62.4175 25.0771C62.2237 25.2971 62.0999 25.6043 62.0461 25.9986H64.2332V25.9129C64.2089 25.529 64.1068 25.2386 63.9268 25.0414C63.7468 24.8443 63.498 24.7457 63.1804 24.7457ZM69.8468 29.0321V24.77H69.0668V23.9193H69.8468V23.4514C69.8468 22.8843 70.0044 22.4464 70.3196 22.1379C70.6344 21.8293 71.0754 21.675 71.6425 21.675C71.8444 21.675 72.0587 21.7033 72.2854 21.76L72.2568 22.6579C72.1121 22.6302 71.9648 22.6175 71.8175 22.62C71.2694 22.62 70.9956 22.9019 70.9961 23.4657V23.9193H72.0339V24.77H70.9954V29.0321H69.8468ZM76.3582 28.5321C76.0211 28.9283 75.542 29.1264 74.9211 29.1264C74.3663 29.1264 73.9468 28.9643 73.6625 28.64C73.3773 28.3162 73.2346 27.8467 73.2346 27.2314V23.9193H74.3832V27.2171C74.3832 27.8667 74.6525 28.1914 75.1911 28.1914C75.7487 28.1914 76.1249 27.9914 76.3196 27.5914V23.9193H77.4682V29.0321H76.3861L76.3582 28.5321ZM80.4639 22.6764V23.9193H81.3668V24.77H80.4639V27.6236C80.4639 27.8193 80.5025 27.9605 80.5797 28.0471C80.6573 28.1329 80.7951 28.176 80.9932 28.1764C81.1261 28.1764 81.2599 28.1607 81.3946 28.1293V29.0179C81.1489 29.0886 80.8946 29.125 80.6389 29.1264C79.757 29.1264 79.3161 28.6398 79.3161 27.6664V24.77H78.4746V23.9193H79.3154V22.6771L80.4639 22.6764ZM85.7275 28.5321C85.3904 28.9293 84.9116 29.1276 84.2911 29.1271C83.7363 29.1271 83.3166 28.965 83.0318 28.6407C82.7461 28.3169 82.6035 27.8474 82.6039 27.2321V23.92H83.7525V27.2179C83.7525 27.8674 84.0218 28.1921 84.5604 28.1921C85.1175 28.1921 85.4939 27.9921 85.6896 27.5921V23.92H86.8382V29.0329H85.7561L85.7275 28.5321ZM91.0718 24.9693C90.9171 24.9439 90.7607 24.9312 90.6039 24.9314C90.0777 24.9314 89.7232 25.1331 89.5404 25.5364V29.0329H88.3925V23.92H89.4889L89.5168 24.4914C89.7944 24.0476 90.1787 23.8257 90.6696 23.8257C90.8335 23.8257 90.9689 23.8476 91.0761 23.8914L91.0718 24.9693ZM94.3461 29.1271C93.618 29.1271 93.028 28.8981 92.5761 28.44C92.1246 27.9814 91.8987 27.3712 91.8982 26.6093V26.4671C91.8982 25.9567 91.9966 25.5007 92.1932 25.0993C92.3754 24.7145 92.6629 24.3893 93.0225 24.1614C93.379 23.9376 93.7923 23.821 94.2132 23.8257C94.9099 23.8257 95.4477 24.0476 95.8268 24.4914C96.2063 24.9362 96.3963 25.5648 96.3968 26.3771V26.8407H93.0554C93.0906 27.2626 93.2318 27.5964 93.4789 27.8421C93.7261 28.0879 94.037 28.2107 94.4118 28.2107C94.938 28.2107 95.3666 27.9979 95.6975 27.5721L96.3168 28.1636C96.1114 28.4695 95.8281 28.7151 95.4961 28.875C95.1374 29.0469 94.7438 29.1332 94.3461 29.1271ZM94.2089 24.7464C93.8937 24.7464 93.6394 24.8569 93.4461 25.0779C93.2523 25.2979 93.1285 25.605 93.0747 25.9993H95.2618V25.9136C95.237 25.5298 95.1349 25.2393 94.9554 25.0421C94.7754 24.8455 94.5266 24.7469 94.2089 24.7464ZM100.256 26.4286C100.256 25.9276 100.355 25.4764 100.554 25.075C100.736 24.691 101.027 24.3689 101.39 24.1486C101.749 23.9329 102.162 23.825 102.629 23.825C103.318 23.825 103.878 24.0469 104.308 24.4907C104.739 24.9355 104.971 25.5248 105.005 26.2586L105.01 26.5279C105.01 27.0317 104.913 27.4821 104.72 27.8793C104.539 28.2618 104.25 28.5824 103.887 28.8007C103.527 29.0179 103.111 29.1264 102.638 29.1264C101.917 29.1264 101.339 28.8864 100.906 28.4064C100.473 27.9255 100.256 27.285 100.256 26.485V26.4286ZM101.405 26.5279C101.405 27.054 101.513 27.466 101.731 27.7636C101.948 28.0612 102.25 28.21 102.638 28.21C103.025 28.21 103.327 28.0586 103.543 27.7557C103.759 27.4543 103.867 27.0119 103.866 26.4286C103.866 25.9124 103.755 25.5029 103.533 25.2C103.311 24.8971 103.01 24.746 102.628 24.7464C102.254 24.7464 101.956 24.8952 101.735 25.1929C101.514 25.4905 101.404 25.9355 101.405 26.5279ZM106.773 29.0321V24.77H105.993V23.9193H106.773V23.4514C106.773 22.8843 106.931 22.4464 107.245 22.1379C107.56 21.8293 108.001 21.675 108.568 21.675C108.77 21.675 108.984 21.7033 109.211 21.76L109.183 22.6579C109.038 22.6302 108.891 22.6175 108.744 22.62C108.195 22.62 107.921 22.9019 107.921 23.4657V23.9193H108.96V24.77H107.921V29.0321H106.773ZM114.063 23.9193L114.096 24.4536C114.455 24.0345 114.947 23.825 115.57 23.825C116.254 23.825 116.722 24.0867 116.974 24.61C117.345 24.0862 117.868 23.8245 118.543 23.825C119.106 23.825 119.526 23.981 119.802 24.2929C120.078 24.6043 120.219 25.064 120.225 25.6721V29.0321H119.077V25.7057C119.077 25.381 119.006 25.1431 118.864 24.9921C118.722 24.8407 118.488 24.765 118.16 24.765C117.899 24.765 117.685 24.8352 117.52 24.9757C117.352 25.12 117.23 25.3114 117.173 25.5257L117.177 29.0329H116.029V25.6679C116.013 25.066 115.706 24.765 115.108 24.765C114.647 24.765 114.321 24.9526 114.13 25.3279V29.0321H112.981V23.9193H114.063ZM121.576 26.4293C121.576 25.9279 121.675 25.4764 121.873 25.075C122.056 24.6911 122.347 24.3691 122.71 24.1486C123.069 23.9329 123.482 23.825 123.948 23.825C124.639 23.825 125.198 24.0469 125.628 24.4907C126.058 24.9355 126.29 25.5248 126.325 26.2586L126.33 26.5279C126.33 27.0317 126.233 27.4821 126.04 27.8793C125.859 28.2619 125.569 28.5825 125.207 28.8007C124.846 29.0179 124.43 29.1264 123.958 29.1264C123.236 29.1264 122.659 28.8864 122.226 28.4064C121.793 27.9255 121.576 27.285 121.576 26.485V26.4293ZM122.725 26.5279C122.725 27.054 122.833 27.466 123.05 27.7636C123.268 28.0612 123.57 28.21 123.958 28.21C124.345 28.21 124.646 28.0586 124.863 27.7557C125.078 27.4543 125.186 27.0119 125.186 26.4286C125.186 25.9124 125.075 25.5029 124.853 25.2C124.631 24.8971 124.329 24.746 123.948 24.7464C123.573 24.7464 123.275 24.8952 123.055 25.1929C122.834 25.4905 122.724 25.9355 122.725 26.5279ZM128.753 23.9193L128.786 24.51C129.165 24.0529 129.661 23.8245 130.275 23.825C131.339 23.825 131.881 24.4345 131.9 25.6536V29.0321H130.753V25.72C130.753 25.3957 130.682 25.1555 130.542 24.9993C130.402 24.8431 130.173 24.765 129.854 24.765C129.391 24.765 129.046 24.9745 128.82 25.3936V29.0321H127.671V23.9193H128.753ZM135.708 29.1264C134.981 29.1264 134.391 28.8974 133.94 28.4393C133.487 27.9807 133.261 27.3705 133.261 26.6086V26.4664C133.261 25.956 133.359 25.5 133.556 25.0986C133.738 24.7137 134.026 24.3885 134.386 24.1607C134.742 23.937 135.155 23.8204 135.576 23.825C136.273 23.825 136.811 24.0469 137.19 24.4907C137.57 24.9355 137.76 25.564 137.76 26.3764V26.84H134.419C134.453 27.2619 134.594 27.5957 134.841 27.8414C135.089 28.0871 135.4 28.21 135.775 28.21C136.301 28.21 136.729 27.9971 137.06 27.5714L137.68 28.1629C137.474 28.4687 137.191 28.7143 136.86 28.8743C136.501 29.0464 136.106 29.1327 135.708 29.1264ZM135.572 24.7457C135.257 24.7457 135.003 24.8562 134.808 25.0771C134.615 25.2971 134.491 25.6043 134.438 25.9986H136.625V25.9129C136.6 25.529 136.498 25.2386 136.318 25.0414C136.139 24.8443 135.89 24.7457 135.572 24.7457ZM140.765 27.3879L141.804 23.9193H143.027L140.995 29.8071C140.684 30.6671 140.155 31.0971 139.408 31.0971C139.221 31.0939 139.035 31.0653 138.855 31.0121V30.1236L139.073 30.1379C139.363 30.1379 139.581 30.0852 139.727 29.98C139.873 29.8738 139.989 29.6967 140.074 29.4486L140.24 29.0086L138.445 23.9193H139.683L140.765 27.3879ZM25.8696 29.1057L18.6654 32.2021V31.8921C17.2761 32.2436 15.7375 32.4464 14.2796 32.5114C7.50536 32.4464 2.12821 28.9414 2.06536 24.7707V23.2214C4.29036 26.42 8.82036 28.5629 14.2796 28.4857C16.1275 28.5629 18.0168 28.2743 19.6046 27.8664L20.2311 26.3179C18.3482 26.8736 16.2925 27.26 14.2804 27.2464C7.50536 27.26 2.12821 23.755 2.06607 19.5064V18.2679C4.29036 21.225 8.81036 23.3679 14.2804 23.2221C16.7411 23.3686 19.1475 22.8564 21.1704 21.9829L21.4846 20.435C19.5075 21.4657 16.9454 22.0643 14.2804 21.9829C7.50536 22.0643 2.12821 18.5593 2.06607 14.2429V13.0036C4.29036 16.0293 8.82036 18.1729 14.2804 18.2679C17.3832 18.1729 20.3254 17.3621 22.7375 16.1L23.0504 14.2421C20.8618 15.8457 17.6661 16.8793 14.2804 17.0286C7.50536 16.8793 2.12893 13.3736 2.06607 8.97857C2.12821 4.79857 7.50536 1.29286 14.2804 1.23786C18.3189 1.29357 22.0696 2.69357 24.3032 4.95357L24.5211 5.31143L26.0996 5.31857L25.8696 4.95357C23.6482 1.97 19.2054 0 14.2804 0C6.78393 0 0.8125 4.08429 0.8125 8.97929V25.08C1.07607 29.8586 6.91107 33.7493 14.2804 33.7493C19.1475 33.7493 23.5218 31.8564 25.8696 29.1057Z" fill="white"/>
<path d="M22.9386 40L25.4672 29.375L18.1979 32.5L22.6236 14.0629H14.0879L16.3 5H43.485L41.2722 14.0629H32.4222L30.525 19.0629L40.3236 15L22.9386 40ZM27.3643 27.1871L26.1 33.4371L36.5307 17.8129L27.9957 21.5629L31.7893 12.8129H40.3236L41.9043 6.25H17.2479L15.6672 12.8129H24.2029L20.0929 30.3129L27.3636 27.1886L27.3643 27.1871Z" fill="white"/>
<path d="M69.828 29.0429H70.9665V24.7614H72.0208V23.9286H70.9665V23.4371C70.9665 23.2576 70.998 23.1064 71.0608 22.9836C71.1235 22.8631 71.2228 22.7656 71.3444 22.705C71.4706 22.6383 71.6203 22.605 71.7937 22.605C71.8794 22.605 71.958 22.6083 72.0294 22.615C72.1056 22.6212 72.1751 22.6321 72.238 22.6479L72.2665 21.7693C72.1611 21.7406 72.0537 21.7201 71.9451 21.7079C71.834 21.6912 71.7217 21.6833 71.6094 21.6843C71.2437 21.6843 70.927 21.7519 70.6594 21.8871C70.3964 22.0146 70.1798 22.2211 70.0401 22.4779C69.8987 22.7364 69.828 23.0562 69.828 23.4371V23.9286H69.043V24.7607H69.828V29.0429ZM56.4408 24.5164V21.7843H55.3073V29.0429H56.4408V25.3929C56.4746 25.3281 56.5127 25.2671 56.5551 25.21C56.6589 25.0686 56.788 24.9567 56.9423 24.8743C57.0994 24.7929 57.2804 24.7521 57.4851 24.7521C57.6808 24.7521 57.8463 24.7852 57.9815 24.8514C58.1173 24.9143 58.2196 25.0181 58.2887 25.1629C58.3615 25.3081 58.398 25.5033 58.398 25.7486V29.0429H59.5408V25.7586C59.5408 25.4086 59.5015 25.1124 59.423 24.87C59.3609 24.6472 59.2457 24.4427 59.0873 24.2743C58.9414 24.1205 58.7598 24.0052 58.5587 23.9386C58.3391 23.8663 58.1091 23.8313 57.878 23.835C57.6022 23.8309 57.3292 23.8902 57.0801 24.0084C56.8309 24.1265 56.6122 24.3003 56.4408 24.5164ZM51.9851 29.0429V23.1071H54.1451V22.1621H48.668V23.1071H50.8087V29.0429H51.9851Z" fill="white"/>
<path fill-rule="evenodd" clip-rule="evenodd" d="M63.3271 29.1371C62.9765 29.1425 62.6281 29.08 62.3014 28.9529C62.0096 28.8334 61.7458 28.6549 61.5264 28.4286C61.3133 28.2003 61.1477 27.9321 61.0392 27.6393C60.9244 27.3259 60.8668 26.9945 60.8692 26.6607V26.4721C60.8692 26.0721 60.9275 25.7098 61.0442 25.385C61.1604 25.0607 61.3225 24.7836 61.5306 24.5536C61.7337 24.323 61.9855 24.1405 62.2678 24.0193C62.5588 23.8947 62.8726 23.832 63.1892 23.835C63.5549 23.835 63.8749 23.8964 64.1492 24.0193C64.4225 24.1421 64.6492 24.3155 64.8292 24.5393C65.0121 24.7598 65.1478 25.0229 65.2364 25.3286C65.3268 25.6343 65.3723 25.9714 65.3728 26.34V26.8264H62.0185C62.0299 26.9879 62.058 27.1407 62.1028 27.285C62.1656 27.4741 62.2568 27.6395 62.3764 27.7814C62.4964 27.9229 62.6416 28.0348 62.8121 28.1171C62.9816 28.1957 63.1752 28.235 63.3928 28.235C63.6671 28.235 63.9114 28.1798 64.1256 28.0693C64.3399 27.9588 64.5256 27.8029 64.6828 27.6014L65.2828 28.1829C65.1609 28.3557 65.0162 28.5114 64.8528 28.6457C64.6766 28.791 64.4609 28.9091 64.2056 29C63.923 29.0964 63.6257 29.1428 63.3271 29.1371ZM62.0885 25.7586C62.0693 25.8412 62.0538 25.9246 62.0421 26.0086H64.2478V25.9193C64.2438 25.7212 64.2023 25.5256 64.1256 25.3429C64.0577 25.1685 63.9412 25.0173 63.7899 24.9071C63.6385 24.7976 63.4368 24.7429 63.1849 24.7429C62.9959 24.7429 62.8273 24.7836 62.6792 24.865C62.5304 24.9472 62.4051 25.0659 62.3149 25.21C62.2105 25.3795 62.1341 25.5648 62.0885 25.7586Z" fill="white"/>
<path d="M75.7769 28.9629C75.9941 28.8587 76.1858 28.708 76.3383 28.5214L76.3676 29.0429H77.4447V23.9293H76.3012V27.5993C76.2215 27.7727 76.0954 27.9208 75.9369 28.0271C75.7512 28.1529 75.4962 28.2157 75.1719 28.2157C75.063 28.2164 74.9546 28.2005 74.8505 28.1686C74.7503 28.1374 74.6594 28.0822 74.5855 28.0079C74.5042 27.9232 74.4429 27.8214 74.4062 27.71C74.3582 27.5588 74.3358 27.4007 74.3397 27.2421V23.9293H73.2012V27.2329C73.2012 27.57 73.2421 27.86 73.324 28.1029C73.4059 28.3457 73.5209 28.5424 73.669 28.6928C73.82 28.8443 73.9995 28.9562 74.2076 29.0286C74.4157 29.1009 74.644 29.1371 74.8926 29.1371C75.2359 29.1371 75.5307 29.079 75.7769 28.9629ZM81.3333 24.7614V23.9286H80.4212V22.6764H79.2826V23.9286H78.4505V24.7607H79.2826V27.7C79.2826 28.05 79.3393 28.3305 79.4526 28.5414C79.5659 28.7529 79.7236 28.9055 79.9255 28.9993C80.1269 29.0907 80.3583 29.1364 80.6197 29.1364C80.7807 29.1364 80.9226 29.1255 81.0455 29.1036C81.1712 29.0817 81.2814 29.0564 81.3762 29.0279L81.3712 28.1586C81.239 28.1855 81.1046 28.1998 80.9697 28.2014C80.8597 28.2014 80.7636 28.1871 80.6812 28.1586C80.5985 28.129 80.5296 28.07 80.4876 27.9928C80.4433 27.9081 80.4212 27.7867 80.4212 27.6286V24.7607L81.3333 24.7614ZM85.1419 28.9629C85.3657 28.8533 85.5531 28.7062 85.704 28.5214L85.7326 29.0429H86.8105V23.9293H85.6669V27.5993C85.5869 27.7725 85.4609 27.9205 85.3026 28.0271C85.1169 28.1529 84.8616 28.2157 84.5369 28.2157C84.4235 28.2157 84.3164 28.2 84.2155 28.1686C84.1156 28.1373 84.0249 28.0821 83.9512 28.0079C83.8697 27.9233 83.8081 27.8215 83.7712 27.71C83.7234 27.5588 83.7012 27.4007 83.7055 27.2421V23.9293H82.5662V27.2329C82.5662 27.57 82.6071 27.86 82.689 28.1029C82.7709 28.3457 82.8859 28.5424 83.034 28.6928C83.1855 28.8443 83.3652 28.9562 83.5733 29.0286C83.7809 29.1009 84.0093 29.1371 84.2583 29.1371C84.6016 29.1371 84.8962 29.079 85.1419 28.9629ZM89.4983 25.5478V29.0429H88.3597V23.9293H89.4469L89.479 24.53L89.4983 24.4964C89.6278 24.2888 89.7885 24.1267 89.9805 24.01C90.1757 23.8933 90.4009 23.835 90.6562 23.835C90.7257 23.835 90.7997 23.8412 90.8783 23.8536C90.9602 23.8664 91.0216 23.8807 91.0626 23.8964L91.0533 24.955C90.9003 24.9302 90.7455 24.9176 90.5905 24.9171C90.3952 24.9171 90.2236 24.9457 90.0755 25.0029C89.9463 25.0479 89.8281 25.1198 89.7287 25.2137C89.6292 25.3076 89.5507 25.4215 89.4983 25.5478Z" fill="white"/>
<path fill-rule="evenodd" clip-rule="evenodd" d="M94.3154 29.1372C93.9373 29.1372 93.5953 29.0757 93.2896 28.9529C92.9979 28.8334 92.7341 28.6549 92.5146 28.4286C92.3016 28.2003 92.136 27.9321 92.0275 27.6393C91.9127 27.3259 91.8551 26.9945 91.8575 26.6607V26.4722C91.8575 26.0722 91.9158 25.7098 92.0325 25.385C92.1487 25.0607 92.3108 24.7836 92.5189 24.5536C92.7222 24.3229 92.9742 24.1404 93.2568 24.0193C93.5479 23.8947 93.8616 23.832 94.1782 23.835C94.5434 23.835 94.8632 23.8964 95.1375 24.0193C95.4118 24.1422 95.6387 24.3155 95.8182 24.5393C96.0006 24.7598 96.1358 25.0229 96.2239 25.3286C96.3154 25.6343 96.3611 25.9714 96.3611 26.34V26.8264H93.0068C93.0182 26.9879 93.0463 27.1407 93.0911 27.285C93.1539 27.4741 93.2454 27.6395 93.3654 27.7814C93.4844 27.9229 93.6292 28.0348 93.7996 28.1172C93.9701 28.1957 94.1639 28.235 94.3811 28.235C94.6352 28.2398 94.8866 28.183 95.1139 28.0693C95.3282 27.9588 95.5139 27.8029 95.6711 27.6014L96.2718 28.1829C96.1499 28.3558 96.0052 28.5114 95.8418 28.6457C95.648 28.8004 95.4287 28.9203 95.1939 29C94.9113 29.0964 94.614 29.1428 94.3154 29.1372ZM93.0768 25.7586C93.0576 25.8412 93.0421 25.9246 93.0304 26.0086H95.2368V25.9193C95.2325 25.7211 95.1909 25.5255 95.1139 25.3429C95.046 25.1685 94.9295 25.0173 94.7782 24.9072C94.6268 24.7976 94.4251 24.7429 94.1732 24.7429C93.9842 24.7429 93.8156 24.7836 93.6675 24.865C93.5223 24.9441 93.4011 25.0591 93.3039 25.21C93.1981 25.3789 93.1214 25.5643 93.0768 25.7586ZM100.197 26.4343V26.5429C100.197 26.9114 100.251 27.2533 100.358 27.5686C100.465 27.8829 100.621 28.1586 100.826 28.3957C101.031 28.6291 101.28 28.8117 101.572 28.9436C101.869 29.0726 102.205 29.1372 102.58 29.1372C102.951 29.1372 103.283 29.0729 103.577 28.9443C103.87 28.8114 104.118 28.6286 104.323 28.3957C104.532 28.1535 104.691 27.8724 104.791 27.5686C104.898 27.2533 104.952 26.9114 104.952 26.5429V26.4343C104.952 26.0657 104.898 25.7238 104.791 25.4086C104.692 25.1044 104.533 24.8231 104.323 24.5814C104.117 24.3442 103.861 24.1569 103.572 24.0336C103.256 23.8971 102.914 23.8294 102.57 23.835C102.198 23.835 101.864 23.9012 101.568 24.0336C101.275 24.1626 101.026 24.3452 100.821 24.5814C100.614 24.8241 100.457 25.1051 100.358 25.4086C100.251 25.7238 100.197 26.0657 100.197 26.4343ZM101.337 26.5429V26.4343C101.337 26.2072 101.36 25.9929 101.407 25.7914C101.45 25.5991 101.525 25.4154 101.63 25.2486C101.731 25.091 101.858 24.9679 102.012 24.8793C102.17 24.7879 102.355 24.7422 102.57 24.7422C102.784 24.7422 102.968 24.7879 103.122 24.8793C103.281 24.9679 103.41 25.0907 103.51 25.2479C103.614 25.405 103.69 25.5862 103.737 25.7914C103.787 25.9929 103.812 26.2072 103.812 26.4343V26.5429C103.812 26.7729 103.787 26.9902 103.737 27.195C103.69 27.3998 103.616 27.5793 103.515 27.7336C103.418 27.8849 103.285 28.01 103.128 28.0979C102.96 28.19 102.771 28.2356 102.58 28.23C102.362 28.23 102.174 28.186 102.017 28.0979C101.86 28.0099 101.727 27.8848 101.63 27.7336C101.524 27.5687 101.449 27.3863 101.407 27.195C101.359 26.9811 101.335 26.7622 101.337 26.5429Z" fill="white"/>
<path d="M107.824 29.0429H106.685V24.7614H105.9V23.9286H106.685V23.4371C106.685 23.0562 106.756 22.7364 106.898 22.4779C107.043 22.2159 107.249 22.019 107.517 21.8871C107.784 21.7514 108.101 21.6838 108.467 21.6843C108.58 21.6843 108.691 21.6921 108.802 21.7079C108.913 21.7202 109.02 21.7407 109.123 21.7693L109.095 22.6479C109.027 22.6318 108.957 22.6208 108.887 22.615C108.808 22.6087 108.73 22.6056 108.651 22.6057C108.477 22.6057 108.328 22.6388 108.202 22.705C108.081 22.7664 107.982 22.8637 107.918 22.9836C107.852 23.1253 107.819 23.2807 107.824 23.4371V23.9286H108.878V24.7607H107.824V29.0429ZM114.009 25.3671V29.0429H112.87V23.9293H113.943L113.979 24.5057C114.146 24.2962 114.349 24.1343 114.59 24.02C114.845 23.8962 115.14 23.8345 115.474 23.835C115.707 23.835 115.92 23.8698 116.112 23.9393C116.307 24.005 116.476 24.1105 116.618 24.2557C116.722 24.3605 116.809 24.4874 116.878 24.6364C116.908 24.5936 116.939 24.5517 116.972 24.5107C117.142 24.2998 117.352 24.1343 117.6 24.0143C117.868 23.8898 118.161 23.8285 118.456 23.835C118.718 23.835 118.951 23.8712 119.155 23.9436C119.363 24.0131 119.54 24.1233 119.685 24.2743C119.829 24.4252 119.94 24.6221 120.015 24.865C120.091 25.1045 120.129 25.3945 120.129 25.735V29.0429H118.985V25.73C118.985 25.4714 118.948 25.2714 118.872 25.13C118.808 24.9965 118.697 24.8919 118.56 24.8371C118.424 24.78 118.262 24.7514 118.073 24.7514C117.897 24.7514 117.741 24.7848 117.605 24.8514C117.474 24.9137 117.359 25.0059 117.27 25.1207C117.178 25.2353 117.109 25.3655 117.064 25.505C117.065 25.5479 117.066 25.5914 117.066 25.6357V29.0429H115.928V25.7357C115.928 25.4867 115.89 25.2914 115.814 25.15C115.748 25.0144 115.636 24.9069 115.498 24.8471C115.344 24.7804 115.178 24.7482 115.01 24.7529C114.796 24.7529 114.613 24.7938 114.463 24.8757C114.316 24.9567 114.191 25.0719 114.098 25.2114C114.065 25.261 114.035 25.3129 114.009 25.3671Z" fill="white"/>
<path fill-rule="evenodd" clip-rule="evenodd" d="M121.461 26.5429V26.4343C121.461 26.0657 121.515 25.7238 121.622 25.4086C121.729 25.091 121.883 24.8152 122.085 24.5814C122.289 24.3448 122.544 24.1575 122.831 24.0336C123.147 23.8971 123.489 23.8294 123.833 23.835C124.208 23.835 124.542 23.9012 124.835 24.0336C125.131 24.1626 125.382 24.3452 125.587 24.5814C125.792 24.8148 125.948 25.0905 126.055 25.4086C126.162 25.7238 126.215 26.0657 126.215 26.4343V26.5429C126.215 26.9114 126.162 27.2533 126.055 27.5686C125.947 27.8829 125.791 28.1586 125.587 28.3957C125.381 28.6306 125.126 28.8176 124.84 28.9436C124.547 29.0726 124.214 29.1372 123.843 29.1372C123.497 29.143 123.155 29.0774 122.836 28.9443C122.55 28.818 122.296 28.6308 122.09 28.3957C121.881 28.1535 121.722 27.8724 121.622 27.5686C121.512 27.238 121.457 26.8913 121.461 26.5429ZM122.6 26.4343V26.5429C122.6 26.7729 122.623 26.9902 122.67 27.195C122.718 27.3998 122.792 27.5793 122.893 27.7336C122.993 27.8883 123.122 28.0098 123.28 28.0979C123.438 28.186 123.625 28.23 123.843 28.23C124.054 28.23 124.237 28.186 124.391 28.0979C124.548 28.0099 124.681 27.8848 124.778 27.7336C124.884 27.5687 124.959 27.3863 125 27.195C125.051 26.9902 125.076 26.7729 125.076 26.5429V26.4343C125.076 26.2072 125.051 25.9929 125 25.7914C124.958 25.5983 124.881 25.4144 124.774 25.2486C124.678 25.0946 124.545 24.9676 124.386 24.8793C124.218 24.7845 124.027 24.7371 123.833 24.7422C123.619 24.7422 123.433 24.7879 123.275 24.8793C123.12 24.969 122.988 25.0956 122.893 25.2479C122.792 25.405 122.718 25.5862 122.67 25.7914C122.623 26.0024 122.599 26.218 122.6 26.4343Z" fill="white"/>
<path d="M128.676 25.4093V29.0429H127.537V23.9293H128.61L128.647 24.5457L128.671 24.5157C128.845 24.3023 129.065 24.1309 129.314 24.0143C129.574 23.8922 129.859 23.8309 130.146 23.835C130.391 23.835 130.614 23.8698 130.812 23.9393C131.014 24.005 131.186 24.1136 131.327 24.265C131.472 24.4164 131.583 24.6133 131.659 24.8557C131.734 25.0952 131.771 25.3898 131.771 25.7393V29.0429H130.628V25.7357C130.628 25.49 130.592 25.2962 130.519 25.1543C130.458 25.0175 130.349 24.9081 130.212 24.8471C130.056 24.7791 129.886 24.7469 129.716 24.7529C129.52 24.7529 129.346 24.7938 129.191 24.8757C129.037 24.9573 128.904 25.0719 128.799 25.2114C128.754 25.2733 128.713 25.3393 128.676 25.4093Z" fill="white"/>
<path fill-rule="evenodd" clip-rule="evenodd" d="M135.567 29.1371C135.216 29.1425 134.868 29.0799 134.542 28.9529C134.25 28.8334 133.986 28.6549 133.767 28.4286C133.554 28.2003 133.388 27.9321 133.279 27.6393C133.165 27.3259 133.107 26.9945 133.109 26.6607V26.4721C133.109 26.0721 133.168 25.7098 133.284 25.385C133.401 25.0607 133.563 24.7836 133.771 24.5536C133.974 24.323 134.226 24.1405 134.508 24.0193C134.799 23.8947 135.113 23.832 135.429 23.835C135.795 23.835 136.115 23.8964 136.389 24.0193C136.663 24.1421 136.89 24.3155 137.069 24.5393C137.252 24.7598 137.388 25.0229 137.476 25.3286C137.567 25.6343 137.613 25.9714 137.613 26.34V26.8264H134.259C134.27 26.9879 134.298 27.1407 134.343 27.285C134.406 27.4741 134.497 27.6395 134.617 27.7814C134.737 27.9229 134.882 28.0348 135.052 28.1171C135.222 28.1957 135.415 28.235 135.633 28.235C135.907 28.235 136.151 28.1798 136.365 28.0693C136.579 27.9588 136.765 27.8029 136.923 27.6014L137.523 28.1829C137.401 28.3557 137.256 28.5114 137.093 28.6457C136.899 28.8003 136.68 28.9202 136.446 29C136.163 29.0965 135.865 29.1429 135.567 29.1371ZM134.329 25.7586C134.31 25.8412 134.294 25.9246 134.282 26.0086H136.488V25.9193C136.484 25.7211 136.442 25.5255 136.365 25.3429C136.297 25.1686 136.181 25.0174 136.03 24.9071C135.879 24.7976 135.677 24.7429 135.425 24.7429C135.236 24.7429 135.067 24.7836 134.919 24.865C134.774 24.9441 134.653 25.0591 134.555 25.21C134.451 25.3795 134.374 25.5648 134.329 25.7586Z" fill="white"/>
<path d="M140.094 29.03L138.283 23.93H139.512L140.62 27.4228L141.685 23.93H142.905L140.854 29.8228C140.8 29.9629 140.738 30.1 140.67 30.2336C140.59 30.3872 140.49 30.5291 140.372 30.655C140.252 30.7902 140.102 30.8988 139.923 30.9807C139.743 31.0655 139.526 31.1079 139.271 31.1079C139.17 31.1079 139.072 31.0983 138.977 31.0793C138.89 31.0644 138.804 31.0473 138.717 31.0279L138.713 30.1579C138.789 30.1646 138.864 30.1694 138.94 30.1721C139.1 30.1767 139.26 30.1528 139.412 30.1014C139.534 30.0613 139.641 29.9857 139.72 29.8843C139.802 29.7833 139.871 29.6476 139.927 29.4771L140.094 29.03Z" fill="white"/>
</g>
</g>
<defs>
<clipPath id="clip0_786_25690">
<rect width="170" height="40" fill="white" transform="translate(0.8125)"/>
</clipPath>
</defs>
</svg>