<?xml version="1.0" encoding="utf-8"?>
<svg xmlns="http://www.w3.org/2000/svg" width="171" height="40" viewBox="0 0 171 40" fill="none">
<g clip-path="url(#clip0_786_25726)">
<mask id="mask0_786_25726" style="mask-type:luminance" maskUnits="userSpaceOnUse" x="0" y="0" width="171" height="40">
<path d="M0.269531 0H170.27V40H0.269531V0Z" fill="white"/>
</mask>
<g mask="url(#mask0_786_25726)">
<path d="M25.3267 29.1057L18.1224 32.2021V31.8921C16.7331 32.2436 15.1945 32.4464 13.7367 32.5114C6.96239 32.4464 1.58525 28.9414 1.52239 24.7707V23.2214C3.74739 26.42 8.27739 28.5629 13.7367 28.4857C15.5845 28.5629 17.4738 28.2743 19.0617 27.8664L19.6881 26.3179C17.8052 26.8736 15.7495 27.26 13.7374 27.2464C6.96239 27.26 1.58525 23.755 1.5231 19.5064V18.2679C3.74739 21.225 8.26739 23.3679 13.7374 23.2221C16.1981 23.3686 18.6045 22.8564 20.6274 21.9829L20.9417 20.435C18.9645 21.4657 16.4024 22.0643 13.7374 21.9829C6.96239 22.0643 1.58525 18.5593 1.5231 14.2429V13.0036C3.74739 16.0293 8.27739 18.1729 13.7374 18.2679C16.8402 18.1729 19.7824 17.3621 22.1945 16.1L22.5074 14.2421C20.3188 15.8457 17.1231 16.8793 13.7374 17.0286C6.96239 16.8793 1.58596 13.3736 1.5231 8.97857C1.58525 4.79857 6.96239 1.29286 13.7374 1.23786C17.776 1.29357 21.5267 2.69357 23.7602 4.95357L23.9781 5.31143L25.5567 5.31857L25.3267 4.95357C23.1052 1.97 18.6624 0 13.7374 0C6.24096 0 0.269531 4.08429 0.269531 8.97929V25.08C0.533103 29.8586 6.3681 33.7493 13.7374 33.7493C18.6045 33.7493 22.9788 31.8564 25.3267 29.1057Z" fill="white"/>
<path d="M22.3956 40L24.9242 29.375L17.6549 32.5L22.0806 14.0629H13.5449L15.7571 5H42.9421L40.7292 14.0629H31.8792L29.9821 19.0629L39.7806 15L22.3956 40ZM26.8214 27.1871L25.5571 33.4371L35.9878 17.8129L27.4528 21.5629L31.2464 12.8129H39.7806L41.3614 6.25H16.7049L15.1242 12.8129H23.6599L19.5499 30.3129L26.8206 27.1886L26.8214 27.1871ZM56.2021 10.955C56.1254 12.0312 55.734 12.8788 55.0278 13.4979C54.3221 14.1155 53.3921 14.4243 52.2378 14.4243C50.9749 14.4243 49.9818 13.9926 49.2585 13.1293C48.5352 12.266 48.1733 11.081 48.1728 9.57429V8.96215C48.1728 8.00072 48.3394 7.15334 48.6728 6.42C49.0071 5.68762 49.484 5.12572 50.1035 4.73429C50.7235 4.34191 51.444 4.14596 52.2649 4.14643C53.4011 4.14643 54.3166 4.45572 55.0114 5.07429C55.7056 5.69191 56.1071 6.55977 56.2156 7.67786H54.1864C54.1364 7.03215 53.9594 6.56381 53.6556 6.27286C53.3509 5.98238 52.8873 5.83715 52.2649 5.83715C51.5887 5.83715 51.0825 6.0831 50.7464 6.575C50.4106 7.06786 50.238 7.83167 50.2285 8.86643V9.62215C50.229 10.7031 50.3902 11.4931 50.7121 11.9921C51.0349 12.4921 51.5437 12.7419 52.2385 12.7414C52.8652 12.7414 53.3328 12.5962 53.6414 12.3057C53.9504 12.0143 54.1275 11.5643 54.1728 10.9557L56.2021 10.955ZM66.6806 9.51215C66.6806 10.4979 66.5092 11.3612 66.1664 12.1021C65.8235 12.8445 65.333 13.4171 64.6949 13.82C64.0568 14.2229 63.3252 14.4243 62.4999 14.4243C61.6842 14.4243 60.9559 14.2252 60.3149 13.8271C59.6749 13.4281 59.179 12.8591 58.8271 12.12C58.4752 11.381 58.2971 10.5298 58.2928 9.56643V9.07215C58.2928 8.08738 58.4675 7.22072 58.8171 6.47215C59.1666 5.72357 59.6604 5.14857 60.2985 4.74715C60.9366 4.34715 61.6661 4.14691 62.4871 4.14643C63.3075 4.14643 64.0368 4.34667 64.6749 4.74715C65.313 5.14857 65.8068 5.72357 66.1563 6.47215C66.5059 7.22072 66.6806 8.085 66.6806 9.065V9.51215ZM64.6242 9.05858C64.6242 8.00953 64.4394 7.21262 64.0699 6.66786C63.6999 6.12262 63.1723 5.85 62.4871 5.85C61.8056 5.85 61.2799 6.11905 60.9099 6.65715C60.5404 7.19524 60.3535 7.98453 60.3492 9.025V9.51286C60.3492 10.5343 60.534 11.3264 60.9035 11.8893C61.273 12.4531 61.8052 12.735 62.4999 12.735C63.1809 12.735 63.7042 12.4636 64.0699 11.9207C64.4352 11.3779 64.6199 10.5864 64.6242 9.54643V9.05858ZM71.3678 14.2871H69.3392V4.28357H71.3678V14.2871ZM82.3142 14.2871H80.2842L76.3335 7.70572V14.2871H74.3042V4.28357H76.3335L80.2914 10.8793V4.28357H82.3142V14.2871ZM92.3599 5.95357H89.3435V14.2871H87.3142V5.95357H84.3371V4.28357H92.3599V5.95357ZM100.498 9.95215H96.6021V12.6314H101.175V14.2871H94.5721V4.28357H101.161V5.95357H96.6021V8.33715H100.498V9.95215ZM105.45 12.6314H109.759V14.2871H103.421V4.28357H105.45V12.6314ZM117.904 9.95143H114.008V12.6314H118.581V14.2871H111.979V4.28357H118.567V5.95357H114.008V8.33715H117.904V9.95143ZM128.62 13.0229C128.255 13.4671 127.738 13.8117 127.071 14.0564C126.404 14.3021 125.664 14.425 124.852 14.425C124 14.425 123.252 14.236 122.609 13.8579C121.967 13.4798 121.471 12.9312 121.121 12.2121C120.772 11.4931 120.593 10.6481 120.583 9.67715V8.99643C120.583 7.99786 120.749 7.13357 121.081 6.40357C121.413 5.6731 121.89 5.11429 122.514 4.72715C123.139 4.34 123.871 4.14643 124.71 4.14643C125.878 4.14643 126.791 4.42929 127.45 4.995C128.108 5.56072 128.498 6.38405 128.62 7.465H126.644C126.554 6.89215 126.355 6.4731 126.046 6.20786C125.737 5.94215 125.312 5.80929 124.771 5.80929C124.081 5.80929 123.555 6.07262 123.194 6.59929C122.833 7.12596 122.651 7.90929 122.646 8.94929V9.58786C122.646 10.6369 122.843 11.4293 123.235 11.965C123.627 12.5007 124.202 12.7686 124.96 12.7686C125.723 12.7686 126.266 12.6038 126.59 12.2743V10.55H124.743V9.03143H128.62V13.0229ZM134.965 10.6257H133.349V14.2871H131.319V4.28357H134.979C136.143 4.28357 137.04 4.54715 137.671 5.07429C138.303 5.60048 138.618 6.34453 138.618 7.30643C138.618 7.98929 138.473 8.55834 138.182 9.01358C137.891 9.46977 137.45 9.83286 136.859 10.1029L138.99 14.1907V14.2871H136.812L134.965 10.6257ZM133.349 8.95572H134.985C135.494 8.95572 135.889 8.82405 136.169 8.56072C136.449 8.29691 136.589 7.93381 136.589 7.47143C136.589 7 136.457 6.62905 136.193 6.35858C135.929 6.08858 135.525 5.95357 134.979 5.95357H133.349L133.349 8.95572ZM146.777 12.2257H143.218L142.542 14.2871H140.384L144.051 4.28357H145.931L149.618 14.2871H147.46L146.777 12.2257ZM143.766 10.5571H146.229L144.991 6.81143L143.766 10.5571ZM153.623 10.7629V14.2871H151.594V4.28357H155.436C156.175 4.28357 156.826 4.42119 157.387 4.69643C157.949 4.97072 158.381 5.36119 158.683 5.86786C158.985 6.37357 159.136 6.94953 159.136 7.59572C159.136 8.57572 158.806 9.34834 158.145 9.91357C157.484 10.4802 156.57 10.7633 155.402 10.7629H153.623ZM153.623 9.09286H155.436C155.972 9.09286 156.382 8.96477 156.663 8.70858C156.945 8.45143 157.086 8.085 157.086 7.60929C157.086 7.11881 156.944 6.72238 156.66 6.42C156.376 6.11857 155.984 5.9631 155.483 5.95357H153.623V9.09286ZM169.601 14.2871H167.571V10H163.615V14.2871H161.585V4.28357H163.615V8.33715H167.571V4.28357H169.601V14.2871Z" fill="white"/>
<path d="M55.0555 22.7322H48.2434V23.6607H54.0498V28.0357H48.127V28.9643H55.0555V22.7322ZM64.6948 22.0836L63.9498 21.4264C63.1655 22.2479 62.1498 23.0907 60.9012 23.9422C59.6434 24.7936 58.4141 25.4614 57.2334 25.9643L57.7562 26.8064C58.896 26.3248 59.9934 25.7485 61.037 25.0836V29.5264H62.0434V24.3971C63.0691 23.6614 63.9591 22.8872 64.6948 22.0836ZM70.6848 23.8357C69.582 23.0321 68.5755 22.3936 67.6562 21.9286L67.1627 22.7807C68.0041 23.2257 68.972 23.8257 70.0555 24.6L70.6848 23.8357ZM75.0884 23.7L74.1591 23.3322C73.5752 24.6486 72.7059 25.8187 71.6141 26.7579C70.4733 27.7201 69.1198 28.3968 67.6655 28.7321L68.1298 29.6229C69.8141 29.2157 71.2462 28.49 72.437 27.455C73.5398 26.4679 74.4205 25.2193 75.0884 23.7ZM83.6334 22.055H77.4498V22.9836H83.6334V22.055ZM84.727 24.3386H76.5977V25.2579H80.2562C80.1977 26.11 79.9948 26.7972 79.6562 27.3293C79.2884 27.9 78.6305 28.4321 77.6912 28.9357L78.3498 29.6807C79.4434 29.0807 80.2077 28.4036 80.6434 27.6579C80.9912 27.0386 81.2041 26.245 81.2627 25.2579H84.727V24.3386ZM89.082 21.7064H88.0562V29.1193L88.5498 29.5357C89.7453 29.2149 90.8843 28.7121 91.927 28.045C92.965 27.3499 93.8889 26.4978 94.6655 25.5193L93.872 24.9386C93.3305 25.655 92.6041 26.3421 91.7141 26.9807C90.8141 27.6193 89.9334 28.0836 89.082 28.3736V21.7064ZM104.866 22.0936C104.604 21.6486 104.246 21.2129 103.801 20.7971L103.308 21.1836C103.706 21.5678 104.052 22.0041 104.333 22.4807L104.866 22.0936ZM103.423 22.1422C103.145 21.6497 102.789 21.2053 102.369 20.8257L101.866 21.2036C102.267 21.5917 102.615 22.031 102.901 22.51L103.423 22.1422ZM100.104 21.6771L99.1755 21.3771C98.9049 22.1714 98.5131 22.919 98.0141 23.5936C97.4774 24.2933 96.853 24.921 96.1562 25.4614L96.8527 26.1193C97.6462 25.51 98.2948 24.8614 98.8077 24.1643C98.9434 23.9714 99.0784 23.7772 99.2041 23.5743H102.272C101.963 24.8614 101.372 25.955 100.482 26.8457C99.6884 27.6579 98.6627 28.2964 97.4141 28.7614L97.9462 29.6129C99.4655 29.0129 100.685 28.1614 101.614 27.0579C102.523 25.9357 103.123 24.5707 103.414 22.945L102.823 22.6357H99.717C99.8579 22.3214 99.987 22.0019 100.104 21.6771ZM112.531 21.9971H107.131V22.9257H112.531V21.9971ZM112.966 24.0486H106.317V24.9771H112.278C111.911 25.9257 111.378 26.69 110.701 27.2707C109.956 27.9 108.95 28.3743 107.691 28.6836L108.195 29.5643C109.714 29.1771 110.904 28.5486 111.756 27.6772C112.482 26.9129 113.062 25.8388 113.498 24.455L112.966 24.0486ZM122.314 22.4129H115.472V23.3414H121.656C121.25 24.6579 120.582 25.8 119.653 26.7579C118.821 27.6 117.776 28.2964 116.537 28.8579L117.185 29.6321C118.685 28.9743 119.904 28.0643 120.853 26.9036C121.782 25.7607 122.44 24.396 122.827 22.8093L122.314 22.4129ZM133.356 22.2193C133.095 21.7743 132.737 21.3386 132.282 20.9229L131.798 21.3C132.195 21.6893 132.539 22.1284 132.823 22.6064L133.356 22.2193ZM132.378 22.8872C132.097 22.396 131.742 21.9519 131.323 21.5707L130.821 21.9579C131.226 22.3419 131.575 22.7821 131.856 23.265L132.378 22.8872ZM129.446 23.0229C128.595 22.49 127.579 22.0641 126.398 21.745L125.972 22.6357C127.172 22.945 128.14 23.3421 128.895 23.8064L129.446 23.0229ZM133.095 23.9229L132.156 23.5643C131.633 24.7743 130.821 25.8286 129.717 26.7386C128.554 27.6906 127.186 28.3598 125.721 28.6936L126.185 29.6129C127.811 29.2257 129.243 28.51 130.482 27.445C131.606 26.4821 132.499 25.2782 133.095 23.9229ZM128.585 25.1129C127.569 24.5414 126.553 24.1357 125.546 23.9029L125.131 24.7836C126.243 25.0743 127.221 25.4707 128.063 25.955L128.585 25.1129ZM141.998 25.045L141.378 24.5807L138.291 25.1036L137.953 23.3707L136.985 23.555L137.323 25.2679L135.572 25.5679L135.756 26.4579L137.498 26.1486L138.156 29.4679L139.114 29.3036L138.466 25.9836L140.595 25.6064C140.266 26.0514 139.831 26.4972 139.308 26.9422L139.995 27.6C140.74 27 141.408 26.1483 141.998 25.045Z" fill="white"/>
<path fill-rule="evenodd" clip-rule="evenodd" d="M152.662 21.4164C152.568 21.3152 152.454 21.2352 152.327 21.1817C152.2 21.1282 152.064 21.1026 151.926 21.1064C151.636 21.1064 151.384 21.2036 151.19 21.4164C150.977 21.6093 150.881 21.8521 150.881 22.1521C150.881 22.4421 150.977 22.6836 151.19 22.8871C151.384 23.08 151.636 23.1871 151.926 23.1871C152.216 23.1871 152.458 23.08 152.662 22.8871C152.864 22.6836 152.971 22.4421 152.971 22.1514C152.971 21.8514 152.864 21.61 152.662 21.4164ZM151.577 21.7929C151.623 21.7463 151.677 21.7095 151.737 21.6845C151.797 21.6596 151.861 21.6471 151.926 21.6479C151.991 21.6471 152.055 21.6596 152.115 21.6845C152.175 21.7095 152.229 21.7463 152.274 21.7929C152.323 21.8391 152.362 21.8946 152.388 21.9561C152.415 22.0175 152.429 22.0837 152.429 22.1507C152.428 22.2163 152.414 22.2809 152.388 22.3409C152.361 22.4008 152.322 22.4547 152.274 22.4993C152.229 22.5458 152.175 22.5827 152.115 22.6076C152.055 22.6325 151.991 22.645 151.926 22.6443C151.861 22.645 151.797 22.6325 151.737 22.6076C151.677 22.5827 151.623 22.5458 151.577 22.4993C151.528 22.4561 151.488 22.4025 151.461 22.3422C151.434 22.282 151.421 22.2166 151.422 22.1507C151.421 22.0835 151.435 22.0168 151.461 21.9551C151.488 21.8934 151.528 21.8381 151.577 21.7929Z" fill="white"/>
<path d="M151.637 25.4421C151.075 24.2036 150.475 23.1193 149.856 22.2093L148.975 22.655C149.575 23.5264 150.146 24.5614 150.688 25.7807C151.24 27.0193 151.646 28.2 151.917 29.3036L152.933 29.11C152.653 27.9486 152.217 26.7293 151.637 25.4421ZM147.359 22.5579L146.333 22.4321C146.237 23.6707 145.995 24.8321 145.588 25.9164C145.189 26.9852 144.624 27.9843 143.914 28.8771L144.863 29.3514C145.586 28.3918 146.16 27.3283 146.565 26.1971C146.972 25.0743 147.233 23.8543 147.359 22.5579ZM157.782 23.8357C156.678 23.0321 155.672 22.3936 154.753 21.9286L154.259 22.7807C155.101 23.2257 156.069 23.8257 157.153 24.6L157.782 23.8357ZM162.185 23.7L161.256 23.3321C160.673 24.6493 159.803 25.8196 158.71 26.7579C157.57 27.7202 156.217 28.397 154.763 28.7321L155.227 29.6229C156.91 29.2157 158.343 28.49 159.533 27.455C160.637 26.4679 161.517 25.2193 162.185 23.7Z" fill="white"/>
</g>
</g>
<defs>
<clipPath id="clip0_786_25726">
<rect width="170" height="40" fill="white" transform="translate(0.269531)"/>
</clipPath>
</defs>
</svg>