<?xml version="1.0" encoding="utf-8"?>
<svg xmlns="http://www.w3.org/2000/svg" width="200" height="40" viewBox="0 0 200 40" fill="none">
<path d="M50.1445 18.3679C49.9841 18.9091 49.905 19.461 49.905 20.0214C49.905 20.5626 49.9841 21.093 50.1445 21.615C50.305 22.1369 50.551 22.6053 50.8804 23.0267C51.2119 23.4481 51.6269 23.7882 52.1274 24.0492C52.628 24.3102 53.2205 24.4385 53.9007 24.4385C54.6023 24.4385 55.2419 24.3037 55.8237 24.0321C56.4055 23.7604 56.8953 23.3947 57.2953 22.9348L59.4002 25.2193C58.7392 25.9209 57.9563 26.4813 57.0558 26.9027C56.1552 27.3241 55.1007 27.5337 53.9007 27.5337C52.7007 27.5337 51.6269 27.3519 50.6836 26.9925C49.7424 26.631 48.9488 26.1198 48.3071 25.4588C47.6654 24.7979 47.1734 24.0064 46.8355 23.0824C46.4932 22.1626 46.3242 21.1401 46.3242 20.0171C46.3242 18.9947 46.5082 18.0278 46.8804 17.1166C47.2504 16.2053 47.7659 15.4096 48.429 14.7273C49.09 14.0471 49.8879 13.5037 50.8183 13.1037C51.751 12.7037 52.7777 12.5027 53.8986 12.5027C55.0408 12.5027 56.0825 12.708 57.0258 13.1187C57.967 13.5294 58.7691 14.0856 59.4301 14.7872L57.1756 17.0717C56.7734 16.6118 56.3028 16.2503 55.7638 15.9893C55.2226 15.7305 54.6023 15.6 53.8986 15.6C53.2183 15.6 52.6258 15.7262 52.1253 15.9765C51.6248 16.2289 51.2076 16.5519 50.8782 16.9519C50.551 17.3562 50.305 17.8267 50.1445 18.3679ZM68.4526 12.7166C67.8707 12.7166 67.3552 12.7872 66.9039 12.9262C66.4526 13.0674 66.0568 13.2385 65.7167 13.4374C65.3745 13.6385 65.0793 13.8588 64.8312 14.0984C64.5788 14.338 64.3756 14.5583 64.2151 14.7594L64.1253 12.9861H60.7264V27.0845H64.275V19.4802C64.275 18.9604 64.3691 18.4877 64.5617 18.0685C64.752 17.6471 65.0066 17.2856 65.3274 16.9861C65.6483 16.6866 66.029 16.4556 66.4697 16.2952C66.9103 16.1348 67.3702 16.0556 67.8515 16.0556C68.1937 16.0556 68.4889 16.0749 68.7371 16.1155C68.9873 16.1562 69.2333 16.2267 69.4729 16.3251L70.1937 12.9882C69.9135 12.8877 69.6376 12.8193 69.3681 12.7786C69.0986 12.738 68.7927 12.7166 68.4526 12.7166ZM78.8526 22.6374L74.8248 12.9882H70.7371L77.0793 26.9669L76.628 28.1091C76.2857 28.9519 75.9627 29.5722 75.6526 29.9743C75.3424 30.3743 74.9467 30.5754 74.4654 30.5754C74.1039 30.5754 73.8044 30.5005 73.5649 30.3508C73.3253 30.2011 73.105 30.0449 72.9039 29.8845L71.3103 32.3786C71.7103 32.7209 72.1766 32.984 72.7071 33.1743C73.2376 33.3647 73.9028 33.461 74.705 33.461C75.6248 33.461 76.3884 33.2599 76.9895 32.8599C77.5905 32.4578 78.0953 31.9423 78.5082 31.3112C78.9189 30.6802 79.2633 29.9936 79.5456 29.2535C79.8258 28.5112 80.106 27.7904 80.3884 27.0888L86.2814 12.9904H82.4034L78.8526 22.6374ZM101.218 17.3754C101.477 18.2567 101.608 19.1701 101.608 20.1112C101.608 21.2128 101.447 22.1562 101.126 22.9369C100.806 23.7198 100.406 24.4 99.9242 24.9818C99.1221 25.9444 98.2451 26.6139 97.2932 26.9968C96.3413 27.3775 95.3638 27.5679 94.3627 27.5679C93.9007 27.5679 93.505 27.5487 93.1756 27.508C92.844 27.4674 92.5445 27.4139 92.275 27.3433C92.0034 27.2727 91.7552 27.1936 91.5242 27.1037C91.2932 27.0139 91.0472 26.9198 90.7884 26.8171V33.0995H87.2718V12.9861H90.6986L90.7884 14.5797C90.9681 14.3786 91.1948 14.169 91.4643 13.9487C91.736 13.7283 92.0547 13.5273 92.4269 13.3476C92.797 13.1679 93.2183 13.016 93.6889 12.8963C94.1595 12.7765 94.6857 12.7166 95.2675 12.7166C96.3499 12.7166 97.2846 12.9262 98.0782 13.3476C98.8697 13.769 99.5264 14.323 100.048 15.016C100.566 15.707 100.957 16.4941 101.218 17.3754ZM98.0312 20.1134C98.0312 19.5123 97.9649 18.9519 97.8344 18.4299C97.7039 17.908 97.4921 17.4546 97.2034 17.061C96.9124 16.6717 96.5381 16.3615 96.0761 16.1283C95.6141 15.8973 95.0451 15.7818 94.3627 15.7818C93.8215 15.7818 93.3317 15.8973 92.8911 16.1283C92.4504 16.3594 92.0739 16.6545 91.7638 17.0139C91.4536 17.3754 91.2119 17.769 91.0429 18.2011C90.874 18.6332 90.7884 19.0481 90.7884 19.4481V23.6257C91.49 24.2075 92.551 24.4984 93.9756 24.4984C94.6173 24.4984 95.1884 24.3722 95.6889 24.1219C96.1895 23.8717 96.6173 23.5401 96.9681 23.1294C97.3189 22.7187 97.5841 22.2524 97.7638 21.7326C97.9413 21.215 98.0312 20.6717 98.0312 20.1134ZM111.274 24.2909C110.945 24.4513 110.497 24.5305 109.937 24.5305C109.336 24.5305 108.9 24.3144 108.63 23.8845C108.361 23.4545 108.226 22.8385 108.226 22.0364V15.8738H112.014V12.9882H108.226V8.41925H104.677V12.9882H102.273V15.8738H104.677V22.2781C104.677 23.061 104.756 23.7775 104.917 24.4257C105.077 25.0781 105.342 25.6342 105.712 26.0941C106.083 26.5562 106.57 26.9112 107.171 27.1615C107.772 27.4118 108.504 27.538 109.366 27.538C110.209 27.538 110.97 27.4118 111.65 27.1615C112.331 26.9112 113.024 26.4963 113.723 25.9144L112.222 23.7177C111.918 23.9401 111.603 24.1305 111.274 24.2909ZM128.461 17.1209C128.831 18.0342 129.017 19.0011 129.017 20.0214C129.017 21.0439 128.831 22.0107 128.461 22.9219C128.091 23.8353 127.576 24.6353 126.912 25.3262C126.251 26.0193 125.454 26.5647 124.523 26.9647C123.591 27.3647 122.564 27.5658 121.443 27.5658C120.32 27.5658 119.293 27.3647 118.363 26.9647C117.43 26.5647 116.634 26.0171 115.973 25.3262C115.312 24.6353 114.797 23.8332 114.425 22.9219C114.055 22.0107 113.869 21.0417 113.869 20.0214C113.869 18.9989 114.053 18.0321 114.425 17.1209C114.795 16.2096 115.31 15.4139 115.973 14.7316C116.634 14.0513 117.432 13.508 118.363 13.108C119.293 12.708 120.322 12.507 121.443 12.507C122.564 12.507 123.591 12.708 124.523 13.108C125.456 13.5102 126.251 14.0492 126.912 14.7316C127.573 15.4118 128.089 16.2096 128.461 17.1209ZM125.441 20.0235C125.441 19.523 125.362 19.0053 125.201 18.4749C125.041 17.9444 124.795 17.4631 124.465 17.031C124.134 16.5989 123.719 16.2481 123.218 15.9786C122.718 15.707 122.125 15.5722 121.445 15.5722C120.763 15.5722 120.172 15.707 119.672 15.9786C119.171 16.2503 118.754 16.6011 118.425 17.031C118.093 17.4631 117.849 17.9444 117.689 18.4749C117.528 19.0053 117.449 19.523 117.449 20.0235C117.449 20.5433 117.528 21.0652 117.689 21.585C117.849 22.1048 118.095 22.5882 118.425 23.0289C118.756 23.4695 119.171 23.8246 119.672 24.0941C120.172 24.3658 120.765 24.5005 121.445 24.5005C122.125 24.5005 122.718 24.3658 123.218 24.0941C123.719 23.8225 124.136 23.4695 124.465 23.0289C124.797 22.5882 125.041 22.107 125.201 21.585C125.36 21.0652 125.441 20.5433 125.441 20.0235ZM145.009 12.6866C144.446 12.6866 143.946 12.7465 143.505 12.8663C143.064 12.9861 142.666 13.1422 142.318 13.3326C141.967 13.523 141.665 13.7283 141.417 13.9487C141.165 14.169 140.951 14.3808 140.771 14.5797L140.681 12.9861H137.285V27.0845H140.833V19.4481C140.833 18.9283 140.919 18.4406 141.09 17.9893C141.259 17.538 141.496 17.1444 141.796 16.8021C142.095 16.4599 142.457 16.1968 142.878 16.0064C143.3 15.816 143.751 15.7198 144.232 15.7198C145.015 15.7198 145.65 15.9636 146.14 16.4556C146.632 16.9476 146.876 17.6428 146.876 18.5455V27.0824H150.425V18.5155C150.425 16.7337 149.965 15.3134 149.043 14.2631C148.117 13.2128 146.771 12.6866 145.009 12.6866ZM165.721 17.6471C165.961 18.6096 166.083 19.5914 166.083 20.5925V21.1037H155.563C155.563 21.6235 155.678 22.0963 155.909 22.5155C156.14 22.9369 156.44 23.2984 156.81 23.5979C157.18 23.8973 157.601 24.1283 158.072 24.2888C158.542 24.4492 159.009 24.5283 159.469 24.5283C160.149 24.5283 160.746 24.462 161.259 24.3316C161.77 24.2011 162.207 24.0513 162.566 23.8802C162.925 23.7091 163.223 23.5294 163.451 23.339C163.683 23.1487 163.858 22.9925 163.978 22.8727L165.901 25.0374C165.841 25.0973 165.676 25.262 165.404 25.5337C165.133 25.8053 164.743 26.0898 164.232 26.3914C163.721 26.6909 163.071 26.9626 162.277 27.2021C161.486 27.4417 160.538 27.5636 159.437 27.5636C158.314 27.5636 157.291 27.3733 156.371 26.9925C155.449 26.6118 154.662 26.0856 154.012 25.4139C153.36 24.7422 152.859 23.9358 152.508 22.9947C152.157 22.0535 151.982 21.0118 151.982 19.8674C151.982 18.8257 152.157 17.8588 152.508 16.9668C152.859 16.0749 153.351 15.2984 153.98 14.6374C154.611 13.9765 155.362 13.4545 156.234 13.0759C157.107 12.6973 158.072 12.5048 159.135 12.5048C160.416 12.5048 161.505 12.7401 162.397 13.2107C163.289 13.6834 164.006 14.2973 164.545 15.0588C165.088 15.8246 165.481 16.6866 165.721 17.6471ZM162.444 18.5476C162.444 18.1861 162.373 17.8267 162.234 17.4652C162.093 17.1037 161.888 16.7786 161.618 16.4898C161.347 16.1989 161.002 15.9594 160.581 15.769C160.16 15.5786 159.68 15.4824 159.137 15.4824C158.555 15.4824 158.04 15.5765 157.588 15.769C157.137 15.9594 156.763 16.2011 156.461 16.4898C156.16 16.7786 155.931 17.108 155.768 17.4652C155.608 17.8267 155.529 18.1861 155.529 18.5476H162.444ZM184.089 12.9882L181.413 22.7872L178.408 12.9882H175.432L172.457 22.7872L169.749 12.9882H165.841L170.619 27.0866H173.926L176.722 18.5797L179.608 27.0866H183.034L187.815 12.9882C187.813 12.9882 184.089 12.9882 184.089 12.9882ZM199.479 21.3604C199.259 20.8684 198.942 20.4428 198.532 20.0813C198.121 19.7198 197.631 19.4203 197.06 19.1808C196.489 18.9412 195.843 18.7401 195.12 18.5797C193.958 18.2995 193.101 18.0342 192.551 17.784C191.999 17.5337 191.725 17.1872 191.725 16.7465C191.725 16.385 191.89 16.0813 192.222 15.8289C192.553 15.5786 193.137 15.4524 193.98 15.4524C194.823 15.4524 195.552 15.5679 196.174 15.7989C196.795 16.0299 197.295 16.2845 197.678 16.5647L199.511 14.0706C198.81 13.5508 198.025 13.1594 197.152 12.8984C196.279 12.6396 195.223 12.5091 193.982 12.5091C193.28 12.5091 192.585 12.6096 191.892 12.8086C191.201 13.0096 190.579 13.2941 190.027 13.6663C189.475 14.0385 189.03 14.4984 188.69 15.0481C188.348 15.6 188.179 16.2246 188.179 16.9283C188.179 17.6086 188.324 18.1947 188.615 18.6866C188.906 19.1786 189.276 19.6 189.727 19.9487C190.179 20.2995 190.664 20.5754 191.186 20.7743C191.706 20.9754 192.209 21.1358 192.69 21.2535C193.473 21.4353 194.093 21.6043 194.555 21.7647C195.015 21.9251 195.377 22.0856 195.638 22.246C195.896 22.4064 196.07 22.5733 196.149 22.7423C196.228 22.9112 196.269 23.0973 196.269 23.2984C196.269 23.7604 196.038 24.0898 195.578 24.2888C195.116 24.4898 194.506 24.5882 193.745 24.5882C192.883 24.5882 192.117 24.4428 191.445 24.1519C190.773 23.861 190.217 23.4952 189.777 23.0545L187.642 25.369C188.284 26.0898 189.135 26.6353 190.198 27.0075C191.261 27.3775 192.453 27.5636 193.774 27.5636C194.596 27.5636 195.372 27.4588 196.104 27.2492C196.835 27.0396 197.477 26.7422 198.027 26.3636C198.579 25.9829 199.015 25.5187 199.334 24.9668C199.655 24.415 199.813 23.7989 199.813 23.1187C199.809 22.4385 199.7 21.8524 199.479 21.3604ZM132.589 22.9369C131.443 22.9369 130.517 23.8652 130.517 25.0096C130.517 26.1562 131.445 27.0824 132.589 27.0824C133.734 27.0824 134.662 26.154 134.662 25.0096C134.664 23.8652 133.736 22.9369 132.589 22.9369Z" fill="white"/>
<path d="M20.2188 0C9.1749 0 0.21875 8.95615 0.21875 20C0.21875 31.0438 9.1749 40 20.2188 40C31.2626 40 40.2188 31.0438 40.2188 20C40.2188 8.95615 31.2647 0 20.2188 0ZM20.2188 26.0791C22.2294 26.0791 24.1097 25.0845 25.2433 23.4203C25.7075 22.7401 26.6337 22.5647 27.3118 23.0289C27.9899 23.493 28.1674 24.4192 27.7032 25.0973C26.0134 27.5765 23.2155 29.0588 20.2166 29.0588C15.2241 29.0588 11.1621 24.9968 11.1621 20.0064C11.1621 15.0139 15.2241 10.9519 20.2166 10.9519C23.2134 10.9519 26.0134 12.4321 27.7032 14.9134C28.1674 15.5936 27.9899 16.5198 27.3118 16.9818C26.6316 17.446 25.7054 17.2684 25.2433 16.5904C24.1097 14.9241 22.2294 13.9316 20.2188 13.9316C16.869 13.9316 14.1439 16.6567 14.1439 20.0064C14.1439 23.354 16.869 26.0791 20.2188 26.0791ZM11.5877 28.3316C13.8423 30.6652 16.8712 31.9679 20.1139 31.9979C23.3653 32.0214 26.407 30.7786 28.7 28.4856C30.9653 26.2203 32.2145 23.2086 32.2145 20.0064C32.2145 16.8021 30.9674 13.7904 28.7 11.5273C24.0241 6.85134 16.4155 6.85134 11.7375 11.5273C8.85618 14.4086 7.63907 18.5134 8.48613 22.507C8.55886 22.8513 8.33854 23.1914 7.99415 23.262C7.64977 23.3348 7.30966 23.1144 7.23907 22.7701C6.30217 18.3529 7.64763 13.8118 10.8348 10.6225C16.0091 5.44813 24.4262 5.44813 29.6006 10.6225C34.7749 15.7968 34.7749 24.2139 29.6006 29.3882C27.0915 31.8973 23.7631 33.2749 20.2209 33.2749C20.1824 33.2749 20.1417 33.2749 20.1011 33.2749C16.5139 33.2428 13.1642 31.8032 10.6701 29.2214C10.4262 28.969 10.4327 28.5626 10.6872 28.3187C10.9396 28.0706 11.3439 28.077 11.5877 28.3316ZM10.3086 25.8759C10.3086 26.5818 9.73747 27.1529 9.03158 27.1529C8.3257 27.1529 7.75458 26.5818 7.75458 25.8759C7.75458 25.1701 8.3257 24.5989 9.03158 24.5989C9.73747 24.5989 10.3086 25.1701 10.3086 25.8759ZM28.1011 4.3893C28.807 4.3893 29.3781 4.96043 29.3781 5.66631C29.3781 6.37219 28.807 6.94331 28.1011 6.94331C27.3952 6.94331 26.8241 6.37219 26.8241 5.66631C26.8262 4.96043 27.3974 4.3893 28.1011 4.3893ZM32.238 32.0214C29.0273 35.2321 24.7578 36.9989 20.2209 36.9989C15.6797 36.9989 11.4123 35.2299 8.20164 32.0214C4.99094 28.8107 3.2241 24.5412 3.2241 20.0021C3.2241 15.4631 4.99308 11.1936 8.20164 7.98289C12.3877 3.79679 18.1781 2.1369 24.084 3.42674C24.4284 3.5016 24.6466 3.84171 24.5696 4.1861C24.4947 4.53048 24.1546 4.74866 23.8102 4.67166C18.3364 3.47593 12.9738 5.00962 9.10217 8.88128C6.13319 11.8503 4.49897 15.7989 4.49897 19.9979C4.49897 24.1968 6.13319 28.1455 9.10217 31.1144C12.0712 34.0834 16.0198 35.7176 20.2188 35.7176C24.4177 35.7176 28.3663 34.0813 31.3353 31.1144C34.3043 28.1455 35.9385 24.1968 35.9385 19.9979C35.9385 15.8246 34.2316 11.7476 31.2583 8.80855C31.0059 8.56043 31.0059 8.15615 31.254 7.90588C31.5022 7.65347 31.9065 7.65348 32.1567 7.9016C35.3717 11.0781 37.2155 15.4866 37.2155 19.9979C37.2177 24.5412 35.4487 28.8107 32.238 32.0214Z" fill="white"/>
</svg>