<?xml version="1.0" encoding="utf-8"?>
<svg xmlns="http://www.w3.org/2000/svg" width="20" height="16" viewBox="0 0 20 16" fill="none">
<path d="M17.5631 0.141253C17.5631 0.141253 19.3393 -0.551319 19.1912 1.13064C19.1419 1.82322 18.6979 4.24723 18.3525 6.86912L17.1684 14.6359C17.1684 14.6359 17.0698 15.7736 16.1817 15.9715C15.2936 16.1694 13.9615 15.279 13.7148 15.0811C13.5175 14.9327 10.0145 12.7065 8.78108 11.6182C8.43571 11.3214 8.04101 10.7277 8.83041 10.0352L14.0108 5.08823C14.6029 4.49459 15.1949 3.10944 12.7281 4.79141L5.82085 9.49102C5.82085 9.49102 5.03146 9.9857 3.55136 9.54049L0.344421 8.55109C0.344421 8.55109 -0.839676 7.80906 1.18316 7.06698C6.1169 4.7419 12.1854 2.36736 17.5631 0.141253Z" fill="white"/>
</svg>