<?xml version="1.0" encoding="utf-8"?>
<svg xmlns="http://www.w3.org/2000/svg" width="21" height="18" viewBox="0 0 21 18" fill="none">
<path d="M20.6109 14.1917L17.2379 17.7549C17.1646 17.8323 17.0759 17.894 16.9773 17.9361C16.8787 17.9783 16.7724 18.0001 16.6649 18H0.675272C0.598976 18 0.524343 17.978 0.460544 17.9368C0.396743 17.8956 0.346555 17.837 0.316144 17.768C0.285733 17.6991 0.276425 17.6229 0.289364 17.5489C0.302302 17.4748 0.336923 17.4061 0.388973 17.3511L3.76451 13.788C3.83764 13.7108 3.92607 13.6492 4.02432 13.6071C4.1226 13.5649 4.22861 13.543 4.33581 13.5429H20.3246C20.4008 13.5429 20.4755 13.5648 20.5393 13.606C20.603 13.6472 20.6532 13.7059 20.6838 13.7748C20.7141 13.8438 20.7234 13.9199 20.7105 13.994C20.6975 14.068 20.6629 14.1368 20.6109 14.1917ZM17.2379 7.01656C17.1646 6.93916 17.0759 6.87745 16.9773 6.83528C16.8787 6.79312 16.7724 6.77138 16.6649 6.77144H0.675272C0.598976 6.77144 0.524343 6.79338 0.460544 6.8346C0.396743 6.87582 0.346555 6.93448 0.316144 7.00339C0.285733 7.07232 0.276425 7.1485 0.289364 7.22256C0.302302 7.29661 0.336923 7.36533 0.388973 7.4203L3.76451 10.9834C3.83764 11.0606 3.92607 11.1222 4.02432 11.1644C4.1226 11.2065 4.22861 11.2284 4.33581 11.2286H20.3246C20.4008 11.2286 20.4755 11.2066 20.5393 11.1654C20.603 11.1242 20.6532 11.0655 20.6838 10.9966C20.7141 10.9277 20.7234 10.8515 20.7105 10.7774C20.6975 10.7034 20.6629 10.6347 20.6109 10.5797L17.2379 7.01656ZM0.675272 4.45715H16.6649C16.7724 4.45719 16.8787 4.43547 16.9773 4.39329C17.0759 4.35111 17.1646 4.2894 17.2379 4.212L20.6109 0.648857C20.6629 0.593912 20.6975 0.525187 20.7105 0.451125C20.7234 0.377063 20.7141 0.300893 20.6838 0.231971C20.6532 0.163049 20.603 0.104379 20.5393 0.0631683C20.4755 0.0219577 20.4008 2.53788e-06 20.3246 0H4.33581C4.22861 0.000179672 4.1226 0.0220293 4.02432 0.0641962C3.92607 0.106363 3.83764 0.16795 3.76451 0.245144L0.389844 3.80829C0.337844 3.86317 0.303238 3.93183 0.29027 4.0058C0.277302 4.07978 0.286536 4.15589 0.31684 4.22478C0.347143 4.29367 0.397199 4.35234 0.460868 4.39362C0.524537 4.43489 0.599051 4.45696 0.675272 4.45715Z" fill="url(#paint0_linear_371_35638)"/>
<defs>
<linearGradient id="paint0_linear_371_35638" x1="2.00843" y1="18.429" x2="18.4931" y2="-0.437014" gradientUnits="userSpaceOnUse">
<stop offset="0.08" stop-color="#9945FF"/>
<stop offset="0.3" stop-color="#8752F3"/>
<stop offset="0.5" stop-color="#5497D5"/>
<stop offset="0.6" stop-color="#43B4CA"/>
<stop offset="0.72" stop-color="#28E0B9"/>
<stop offset="0.97" stop-color="#19FB9B"/>
</linearGradient>
</defs>
</svg>