<?xml version="1.0" encoding="utf-8"?>
<svg xmlns="http://www.w3.org/2000/svg" width="16" height="16" viewBox="0 0 16 16" fill="none">
<path d="M8 16C12.4183 16 16 12.4183 16 8C16 3.58172 12.4183 0 8 0C3.58172 0 0 3.58172 0 8C0 12.4183 3.58172 16 8 16Z" fill="url(#paint0_linear_381_36416)"/>
<path d="M12.9485 10.3074L11.2977 11.891C11.2618 11.9254 11.2184 11.9529 11.1701 11.9716C11.1219 11.9904 11.0698 12 11.0173 12H3.19165C3.15431 12 3.11778 11.9902 3.08655 11.9719C3.05533 11.9536 3.03077 11.9275 3.01588 11.8969C3.001 11.8663 2.99644 11.8324 3.00278 11.7995C3.00911 11.7666 3.02605 11.736 3.05153 11.7116L4.70357 10.128C4.73937 10.0937 4.78264 10.0663 4.83073 10.0476C4.87883 10.0288 4.93071 10.0191 4.98318 10.019H12.8083C12.8457 10.019 12.8822 10.0288 12.9135 10.0471C12.9446 10.0654 12.9692 10.0915 12.9842 10.1221C12.999 10.1528 13.0036 10.1866 12.9972 10.2195C12.9909 10.2525 12.974 10.283 12.9485 10.3074ZM11.2977 7.11847C11.2618 7.08407 11.2184 7.05665 11.1701 7.0379C11.1219 7.01916 11.0698 7.0095 11.0173 7.00953H3.19165C3.15431 7.00953 3.11778 7.01928 3.08655 7.0376C3.05533 7.05592 3.03077 7.08199 3.01588 7.11262C3.001 7.14325 2.99644 7.17711 3.00278 7.21003C3.00911 7.24294 3.02605 7.27348 3.05153 7.29791L4.70357 8.88153C4.73937 8.91584 4.78264 8.9432 4.83073 8.96195C4.87883 8.98068 4.93071 8.9904 4.98318 8.99047H12.8083C12.8457 8.99047 12.8822 8.98072 12.9135 8.9624C12.9446 8.94408 12.9692 8.91801 12.9842 8.88738C12.999 8.85675 13.0036 8.82289 12.9972 8.78997C12.9909 8.75706 12.974 8.72652 12.9485 8.70209L11.2977 7.11847ZM3.19165 5.98095H11.0173C11.0698 5.98097 11.1219 5.97132 11.1701 5.95257C11.2184 5.93383 11.2618 5.9064 11.2977 5.872L12.9485 4.28838C12.974 4.26396 12.9909 4.23342 12.9972 4.2005C13.0036 4.16758 12.999 4.13373 12.9842 4.1031C12.9692 4.07247 12.9446 4.04639 12.9135 4.02807C12.8822 4.00976 12.8457 4 12.8083 4H4.98318C4.93071 4.00008 4.87883 4.00979 4.83073 4.02853C4.78264 4.04727 4.73937 4.07464 4.70357 4.10895L3.05195 5.69257C3.0265 5.71696 3.00957 5.74748 3.00322 5.78035C2.99687 5.81324 3.00139 5.84706 3.01622 5.87768C3.03105 5.9083 3.05555 5.93437 3.08671 5.95272C3.11787 5.97106 3.15434 5.98087 3.19165 5.98095Z" fill="white"/>
<defs>
<linearGradient id="paint0_linear_381_36416" x1="1.35059" y1="16.3813" x2="16.1367" y2="1.47377" gradientUnits="userSpaceOnUse">
<stop offset="0.08" stop-color="#9945FF"/>
<stop offset="0.3" stop-color="#8752F3"/>
<stop offset="0.5" stop-color="#5497D5"/>
<stop offset="0.6" stop-color="#43B4CA"/>
<stop offset="0.72" stop-color="#28E0B9"/>
<stop offset="0.97" stop-color="#19FB9B"/>
</linearGradient>
</defs>
</svg>