<?xml version="1.0" encoding="utf-8"?>
<svg xmlns="http://www.w3.org/2000/svg" width="36" height="36" viewBox="0 0 36 36" fill="none">
  <g clip-path="url(#clip0_954_61261)">
    <path d="M18 36C27.9411 36 36 27.9411 36 18C36 8.05887 27.9411 0 18 0C8.05887 0 0 8.05887 0 18C0 27.9411 8.05887 36 18 36Z" fill="#6CDE07"/>
    <path d="M25.625 21.5482C25.625 24.4395 23.2782 26.3587 19.8132 26.6479V29.25H17.4395V26.622C15.0958 26.3577 12.8689 25.4575 11 24.0188L12.746 21.627C14.3019 22.8364 15.7745 23.625 17.5486 23.8882V18.7357C13.565 17.7367 11.7099 16.2911 11.7099 13.3211C11.7099 10.4827 14.0285 8.53763 17.4395 8.27437V6.75H19.8132V8.32725C21.6685 8.53332 23.4373 9.22223 24.9432 10.3253L23.4144 12.7957C22.214 11.9284 20.9866 11.376 19.7041 11.1139V16.1077C23.852 17.1067 25.625 18.7099 25.625 21.5482ZM17.5475 15.5554V10.9294C15.8296 11.061 14.9296 11.9813 14.9296 13.1378C14.9296 14.2403 15.4471 14.9513 17.5486 15.5565L17.5475 15.5554ZM22.4053 21.7316C22.4053 20.5504 21.8315 19.8405 19.7041 19.2352V23.994C21.4231 23.8612 22.4053 22.9939 22.4053 21.7328V21.7316Z" fill="white"/>
  </g>
  <rect x="0.5" y="0.5" width="35" height="35" rx="17.5" stroke="#6CDE07"/>
  <defs>
    <clipPath id="clip0_954_61261">
      <rect width="36" height="36" rx="18" fill="white"/>
    </clipPath>
  </defs>
</svg>