<?xml version="1.0" encoding="utf-8"?>
<svg xmlns="http://www.w3.org/2000/svg" width="268" height="40" viewBox="0 0 268 40" fill="none">
<path d="M5.16931 35.1893C1.96218 32.1158 0.269531 27.6615 0.269531 21.9599V0.75723H13.1871V21.5145C13.1871 24.2762 13.6326 26.4143 14.7016 27.6615C15.7706 28.9087 17.1515 29.4877 19.0223 29.4877C20.8931 29.4877 22.4076 28.8641 23.343 27.6615C24.4121 26.4143 24.8575 24.2762 24.8575 21.5145V0.75723H37.5969V21.7817C37.5969 27.4833 35.9043 31.9376 32.6972 35.1448C29.3119 38.3519 24.8575 39.9109 18.8887 39.9109C13.009 39.9555 8.42098 38.441 5.16931 35.1893ZM48.3319 4.63251C49.7127 4.63251 50.47 5.07795 50.7818 5.56793C51.2272 6.01336 51.7172 6.50333 51.7172 7.88418C51.7172 9.26503 51.2718 9.88864 50.7818 10.2004C50.3363 10.6459 49.7127 11.1359 48.3319 11.1359C46.951 11.1359 46.3274 10.6904 45.882 10.2004C45.4366 9.75501 44.9466 9.1314 44.9466 7.88418C44.9466 6.63696 45.392 6.05791 45.882 5.56793C46.3274 5.25613 46.951 4.63251 48.3319 4.63251ZM48.3319 0.801776C46.3274 0.801776 44.6348 1.55901 43.2539 2.80623C41.8731 4.05345 41.2495 5.7461 41.2495 7.88418C41.2495 10.0223 41.8731 11.7149 43.2539 12.9621C44.6348 14.343 46.3274 14.9666 48.4655 14.9666C50.6036 14.9666 52.2963 14.343 53.6771 12.9621C55.058 11.5813 55.6816 9.88863 55.6816 7.88418C55.6816 5.87973 55.058 4.05345 53.6771 2.80623C52.2072 1.55901 50.5145 0.801776 48.3319 0.801776ZM70.7818 10.9577H59.5568V0.801776H94.8798V10.7795H83.6548V39.0201H70.7372C70.7818 39.0646 70.7818 10.9577 70.7818 10.9577ZM106.728 37.5056C103.61 35.8575 100.938 33.4521 99.0669 30.4232C97.2406 27.3497 96.3052 23.9644 96.3052 20.1336C96.3052 16.3029 97.2406 12.9176 99.0669 9.8441C100.893 6.77061 103.521 4.45434 106.728 2.76168C109.935 0.75723 113.633 0 117.775 0C121.918 0 125.615 0.935409 128.822 2.62806C131.94 4.27617 134.613 6.68151 136.483 9.71046C138.31 12.6503 139.245 16.1693 139.245 20C139.245 23.8307 138.31 27.216 136.483 30.2895C134.657 33.363 132.029 35.6793 128.822 37.3719C125.615 39.0646 121.918 40 117.775 40C113.633 39.9555 109.935 39.1982 106.728 37.5056ZM122.051 28.4633C123.388 27.6615 124.457 26.4588 125.125 25.0779C125.882 23.6971 126.194 22.0045 126.194 20C126.194 17.9955 125.882 16.3029 125.125 14.9221C124.368 13.5412 123.299 12.294 122.051 11.5367C120.804 10.7795 119.29 10.2895 117.731 10.2895C114.613 10.2895 111.762 12.0713 110.336 14.8775C109.579 16.2584 109.267 17.951 109.267 19.9555C109.267 21.9599 109.713 23.6526 110.336 25.0334C111.094 26.4142 112.163 27.6615 113.41 28.4187C114.657 29.1759 116.172 29.6659 117.731 29.6659C119.29 29.5323 120.849 29.2205 122.051 28.4633ZM144.056 0.801776H162.942C167.263 0.801776 170.915 1.55902 174.301 3.11804C177.419 4.58797 180.047 6.85968 181.962 9.71046C183.788 12.6503 184.724 15.9911 184.724 19.8664C184.724 23.6971 183.788 27.0824 181.962 30.0223C180.136 32.9621 177.641 35.1002 174.301 36.6147C171.094 38.1292 167.218 38.931 162.942 38.931H144.056V0.801776ZM162.452 29.0423C165.214 29.0423 167.352 28.2851 169.045 26.7261C170.737 25.167 171.494 22.8953 171.494 19.9555C171.494 17.0156 170.737 14.8775 169.045 13.1849C167.352 11.6704 165.214 10.8686 162.452 10.8686H156.929V28.9978H162.452V29.0423ZM214.835 32.4276H200.27L197.641 39.0201H184.59L201.339 0.75723H214.078L230.648 39.1537H217.285C217.285 39.1982 214.835 32.4276 214.835 32.4276ZM211.316 23.2071L207.619 13.5412L203.922 23.2071H211.316ZM253.098 25.2116V39.0201H240.18V24.8998L225.748 0.623605H239.423L247.263 13.853L255.103 0.623605H267.53C267.53 0.668149 253.098 25.2116 253.098 25.2116Z" fill="white"/>
</svg>