<?xml version="1.0" encoding="utf-8"?>
<svg xmlns="http://www.w3.org/2000/svg" width="17" height="16" viewBox="0 0 17 16" fill="none">
<path d="M2.57242 3.67822H15.328C15.328 3.67822 15.9502 3.67822 15.9502 4.30045V14.2561C15.9502 14.2561 15.9502 14.8784 15.328 14.8784H2.57242C2.57242 14.8784 1.9502 14.8784 1.9502 14.2561V4.30045C1.9502 4.30045 1.9502 3.67822 2.57242 3.67822Z" stroke="white" stroke-linecap="round" stroke-linejoin="round"/>
<path d="M14.0835 3.6778V1.9256C14.0836 1.79395 14.0558 1.66378 14.002 1.54363C13.9482 1.42347 13.8696 1.31606 13.7714 1.22844C13.6731 1.14082 13.5574 1.07498 13.4319 1.03524C13.3064 0.995501 13.174 0.98276 13.0432 0.997856L3.60282 2.08613C3.14764 2.13868 2.72769 2.3568 2.42294 2.69896C2.11818 3.04112 1.94992 3.48342 1.9502 3.94162V4.61114" stroke="white" stroke-linecap="round" stroke-linejoin="round"/>
</svg>