<?xml version="1.0" encoding="utf-8"?>
<svg xmlns="http://www.w3.org/2000/svg" width="310" height="40" viewBox="0 0 310 40" fill="none">
<g clip-path="url(#clip0_786_25748)">
<path d="M190.031 21.68C190.031 28.92 185.871 33.24 179.031 33.24C172.191 33.24 168.031 28.92 168.031 21.68C168.031 14.44 172.231 10.12 179.031 10.12C185.871 10.12 190.031 14.44 190.031 21.68ZM173.991 21.68C173.991 26.28 175.751 28.64 179.031 28.64C182.311 28.64 184.031 26.24 184.031 21.68C184.031 17.12 182.271 14.72 179.031 14.72C175.791 14.72 173.991 17.08 173.991 21.68ZM216.791 32.88H210.311L203.351 20.76L201.671 17.36H201.631L201.751 21.56V32.88H196.591V10.44H201.711C202.551 10.44 203.351 10.92 203.791 11.64L210.071 22.56L211.751 25.96H211.791L211.671 21.76V10.44H216.831L216.791 32.88ZM242.191 28.36V32.88H225.071V10.44H230.911V28.36H242.191ZM254.711 32.88H248.871V10.44H254.711V32.88ZM282.991 32.88H276.511L269.551 20.76L267.871 17.36H267.831L267.951 21.56V32.88H262.791V10.44H267.871C268.711 10.44 269.511 10.92 269.951 11.64L276.231 22.56L277.911 25.96H277.951L277.831 21.76V10.44H282.991V32.88ZM308.911 28.36V32.88H290.991V10.44H308.471V14.96H296.831V19.52H306.071V23.76H296.831V28.36H308.911Z" fill="white"/>
<path fill-rule="evenodd" clip-rule="evenodd" d="M39.7713 23.4C39.1312 23.44 38.6513 23.64 38.2513 24C37.8513 24.32 37.5713 24.76 37.4113 25.4C37.2513 26 37.2113 26.72 37.2113 27.6C37.2113 28.32 37.2513 28.88 37.3713 29.4C37.4512 29.88 37.6113 30.28 37.7713 30.52C37.9313 30.68 38.2113 30.8 38.5312 30.8C39.0112 30.8 39.4113 30.6 39.7713 30.2C40.1312 29.8 40.3713 29.24 40.5713 28.52C40.7713 27.8 40.8513 26.96 40.8513 26V23.28L39.7713 23.4ZM120.531 18.08C120.371 17.2 120.171 16.48 119.891 16C119.611 15.52 119.211 15.28 118.771 15.28C118.331 15.28 117.891 15.52 117.491 16C117.131 16.48 116.851 17.12 116.611 18.04C116.411 18.92 116.291 20 116.291 21.32H120.731C120.771 20.04 120.691 19 120.531 18.08ZM136.931 18.08C136.771 17.2 136.571 16.48 136.291 16C136.011 15.52 135.611 15.28 135.171 15.28C134.731 15.28 134.291 15.52 133.891 16C133.531 16.48 133.251 17.12 133.011 18.04C132.811 18.92 132.691 20 132.691 21.32H137.131C137.171 20.04 137.091 19 136.931 18.08ZM0.53125 0V40H160.531V0H0.53125ZM30.5312 15.56C30.2913 15.72 30.0513 16 29.8913 16.4C29.6913 16.8 29.4913 17.4 29.2913 18.2L25.3713 32.92H21.7313L18.8512 20.84L15.8113 32.92H12.1313L8.33125 17.32C8.21125 16.8 8.05125 16.4 7.85125 16.12C7.69125 15.84 7.45125 15.68 7.21125 15.56C6.93125 15.44 6.61125 15.36 6.21125 15.36H6.13125V13.44H15.5712V15.36H15.2113C14.6113 15.36 14.1713 15.48 13.8512 15.68C13.5712 15.88 13.4113 16.28 13.4113 16.88C13.4113 17.08 13.4513 17.32 13.4913 17.64C13.5713 17.92 13.6113 18.2 13.6913 18.48L14.5712 23.16C14.6912 23.76 14.8113 24.32 14.8913 24.96C15.0113 25.56 15.0912 26.16 15.1712 26.72C15.2512 27.24 15.3312 27.72 15.3712 28.08H15.4913C15.5313 27.68 15.6113 27.28 15.6913 26.8C15.7713 26.32 15.8913 25.84 16.0113 25.36C16.1313 24.88 16.2513 24.44 16.3313 24L19.3313 13.64H21.3313L24.1313 24.36C24.2113 24.64 24.2913 24.92 24.3313 25.28C24.4113 25.6 24.4513 25.96 24.5312 26.32C24.5713 26.64 24.6112 27 24.6513 27.32C24.6912 27.6 24.7312 27.88 24.7712 28.12H24.8913C24.9313 27.72 24.9713 27.36 25.0513 26.96C25.1313 26.56 25.2113 26.16 25.2512 25.72C25.3312 25.24 25.4113 24.8 25.5312 24.32L26.7712 19C26.8512 18.68 26.8913 18.36 26.9713 18C27.0112 17.64 27.0513 17.36 27.0513 17.16C27.0513 16.52 26.8913 16.08 26.5312 15.8C26.2113 15.52 25.7313 15.36 25.0913 15.36H24.8913V13.44H31.9312V15.36H31.5312C31.1313 15.36 30.8113 15.44 30.5312 15.56ZM47.2113 33H41.8513L41.1712 30.48H40.8913C40.4113 31.12 40.0112 31.68 39.6112 32.12C39.2113 32.52 38.7713 32.84 38.2913 33.04C37.7713 33.2 37.1713 33.32 36.4513 33.32C35.5713 33.32 34.7713 33.12 34.0513 32.72C33.3313 32.28 32.7713 31.64 32.3313 30.76C31.9312 29.88 31.7313 28.76 31.7313 27.4C31.7313 25.4 32.2913 23.96 33.3713 23.04C34.4912 22.08 36.1712 21.56 38.3713 21.48L40.8513 21.36V19.36C40.8513 18.48 40.7713 17.72 40.6513 17.12C40.5312 16.48 40.3313 16 40.0513 15.72C39.8113 15.4 39.4913 15.24 39.0513 15.24C38.6513 15.24 38.2913 15.4 38.0513 15.72C37.8113 16 37.6113 16.44 37.4513 17.08C37.3313 17.68 37.2513 18.36 37.2513 19.2C35.7713 19.2 34.6512 19 33.9313 18.6C33.2113 18.2 32.8913 17.6 32.8913 16.76C32.8913 15.92 33.1712 15.24 33.7713 14.68C34.3713 14.12 35.1712 13.72 36.1712 13.44C37.1712 13.16 38.2513 13.04 39.4913 13.04C41.6912 13.04 43.3713 13.52 44.4913 14.44C45.6113 15.36 46.2113 16.96 46.2113 19.24V28.52C46.2113 29.2 46.2513 29.72 46.3713 30.08C46.4912 30.44 46.6912 30.72 46.9712 30.88L47.2113 31V33ZM69.2913 32.92H48.5312V31.04H48.9313C49.2913 31.04 49.6113 30.96 49.9313 30.84C50.2513 30.72 50.4512 30.44 50.6112 30.08C50.7712 29.68 50.8513 29.16 50.8513 28.44V9.48C50.8513 8.84 50.7313 8.36 50.4913 8.04C50.2513 7.72 49.9713 7.52 49.6513 7.44C49.3713 7.36 49.0913 7.28 48.8913 7.28H48.5312V5.36H56.2513V28.4C56.2513 29.12 56.3312 29.64 56.4912 30.04C56.6512 30.4 56.8913 30.64 57.1713 30.8C57.4913 30.96 57.8512 31 58.2113 31H59.7313C60.0913 31 60.4113 30.92 60.7313 30.8C61.0513 30.68 61.2513 30.4 61.4113 30.04C61.5713 29.64 61.6513 29.12 61.6513 28.4V9.48C61.6513 8.84 61.5312 8.36 61.2912 8.04C61.0512 7.72 60.7713 7.52 60.4513 7.44C60.1713 7.36 59.8912 7.28 59.6912 7.28H59.3312V5.36H67.0513V28.4C67.0513 29.12 67.1312 29.64 67.2913 30.04C67.4512 30.4 67.6913 30.64 67.9713 30.8C68.2913 30.96 68.6513 31 69.0113 31H69.2913V32.92ZM81.4513 31.68C80.3713 32.8 78.6913 33.36 76.4513 33.36C74.8913 33.36 73.6113 33.2 72.6513 32.84C71.7313 32.48 71.0912 32 70.6912 31.4C70.2913 30.8 70.0912 30.08 70.0912 29.24C70.0912 28.6 70.2113 28.08 70.4912 27.72C70.7712 27.32 71.0912 27.04 71.5312 26.88C72.0113 26.72 72.4912 26.64 73.0113 26.64C73.0113 27.64 73.1712 28.48 73.4513 29.16C73.7313 29.84 74.1313 30.36 74.6513 30.68C75.1712 31 75.7713 31.2 76.4513 31.2C77.4513 31.2 78.1313 30.96 78.5713 30.48C78.9713 30 79.1713 29.4 79.1713 28.68C79.1713 28.16 79.0513 27.68 78.7713 27.32C78.5312 26.96 78.1712 26.6 77.6513 26.32C77.1313 26 76.4912 25.64 75.6513 25.32C74.4513 24.8 73.4513 24.28 72.6513 23.76C71.8913 23.2 71.2913 22.56 70.8512 21.8C70.4513 21.04 70.2513 20.04 70.2513 18.88C70.2513 16.96 70.8512 15.48 72.0912 14.56C73.3712 13.6 75.0113 13.12 77.0513 13.12C78.3713 13.12 79.4112 13.28 80.2113 13.64C81.0113 13.96 81.6113 14.36 81.9713 14.92C82.3713 15.44 82.5713 16 82.5713 16.6C82.5713 17.4 82.3313 18 81.8512 18.4C81.3713 18.8 80.5713 19 79.5312 19C79.5312 17.8 79.2513 16.88 78.6912 16.24C78.1312 15.6 77.4512 15.28 76.6113 15.28C76.1712 15.28 75.7713 15.36 75.4513 15.52C75.1313 15.68 74.8512 15.96 74.6513 16.28C74.4912 16.6 74.4112 17 74.4112 17.44C74.4112 18 74.4912 18.44 74.6912 18.84C74.8913 19.2 75.2913 19.56 75.7713 19.84C76.2913 20.16 77.0513 20.52 77.9713 20.88C79.0513 21.32 79.9713 21.8 80.7713 22.32C81.5713 22.84 82.1713 23.48 82.5713 24.24C83.0113 25 83.2113 25.96 83.2113 27.16C83.2113 29.04 82.6113 30.52 81.4513 31.68ZM109.811 18.72C109.051 19.24 108.011 19.48 106.731 19.48C106.731 18.8 106.691 18.24 106.611 17.8C106.571 17.36 106.451 17.04 106.251 16.8C106.051 16.56 105.771 16.44 105.371 16.44C105.011 16.44 104.691 16.64 104.371 17.04C104.091 17.4 103.891 17.92 103.691 18.52C103.491 19.12 103.371 19.8 103.251 20.6C103.171 21.36 103.091 22.12 103.091 22.84V28.56C103.091 29.28 103.171 29.8 103.291 30.16C103.451 30.48 103.691 30.72 103.931 30.84C104.211 30.92 104.571 31 104.931 31H105.931V32.92H95.6912V31.04C96.0512 31.04 96.3313 30.96 96.6113 30.84C96.9313 30.72 97.2113 30.48 97.3713 30.12C97.5713 29.72 97.6513 29.16 97.6513 28.4V18.2C97.6513 17.48 97.5713 16.92 97.4112 16.6C97.2513 16.24 97.0513 16 96.7713 15.92C96.4913 15.8 96.1312 15.72 95.6912 15.72H91.2913V27.12C91.2913 28.2 91.4113 29 91.6513 29.52C91.9313 30 92.4112 30.24 93.0912 30.24C93.2913 30.24 93.5312 30.24 93.7313 30.2V32.92C93.6913 32.92 93.6513 32.96 93.6113 32.96C92.8913 33.2 91.9313 33.32 90.7713 33.32C89.2513 33.32 88.0513 32.88 87.1713 32.04C86.2913 31.2 85.8512 29.72 85.8512 27.56V15.76H83.6513V14.04C84.4513 14 85.1313 13.8 85.6513 13.48C86.1712 13.16 86.6113 12.76 86.8913 12.4C87.1712 12.08 87.4113 11.6 87.6513 11.04C87.8913 10.48 88.0913 9.76 88.2513 8.92H91.2913V13.44H102.211L102.811 17.04H103.011C103.331 16.16 103.691 15.44 104.091 14.84C104.531 14.24 105.051 13.8 105.611 13.48C106.211 13.16 106.891 13 107.691 13C108.811 13 109.651 13.32 110.171 13.92C110.691 14.52 110.931 15.32 110.931 16.28C110.931 17.36 110.571 18.2 109.811 18.72ZM126.051 23.6H116.251C116.291 25.24 116.451 26.56 116.771 27.64C117.091 28.68 117.531 29.44 118.171 29.96C118.771 30.48 119.531 30.72 120.371 30.72C121.091 30.72 121.651 30.6 122.171 30.32C122.651 30.04 123.091 29.64 123.451 29.16C123.811 28.68 124.091 28.16 124.331 27.56C124.651 27.64 124.931 27.84 125.171 28.12C125.411 28.4 125.531 28.72 125.531 29.16C125.531 29.76 125.331 30.4 124.891 31.04C124.451 31.68 123.771 32.24 122.811 32.68C121.811 33.12 120.571 33.32 119.011 33.32C116.291 33.32 114.211 32.44 112.851 30.72C111.491 28.96 110.811 26.48 110.811 23.32C110.811 19.92 111.491 17.32 112.851 15.6C114.251 13.84 116.171 13 118.651 13C120.971 13 122.771 13.76 124.051 15.24C125.371 16.72 126.051 18.92 126.051 21.8V23.6ZM142.411 23.6H132.611C132.651 25.24 132.811 26.56 133.131 27.64C133.451 28.68 133.891 29.44 134.531 29.96C135.131 30.48 135.891 30.72 136.731 30.72C137.451 30.72 138.011 30.6 138.531 30.32C139.011 30.04 139.451 29.64 139.811 29.16C140.171 28.68 140.451 28.16 140.691 27.56C141.011 27.64 141.291 27.84 141.531 28.12C141.771 28.4 141.891 28.72 141.891 29.16C141.891 29.76 141.691 30.4 141.251 31.04C140.811 31.68 140.131 32.24 139.171 32.68C138.171 33.12 136.931 33.32 135.371 33.32C132.651 33.32 130.571 32.44 129.211 30.72C127.851 28.96 127.171 26.48 127.171 23.32C127.171 19.92 127.851 17.32 129.211 15.6C130.611 13.84 132.531 13 135.011 13C137.331 13 139.131 13.76 140.411 15.24C141.731 16.72 142.411 18.92 142.411 21.8V23.6ZM154.091 32.36C153.731 32.52 153.171 32.72 152.371 32.96C151.651 33.2 150.691 33.32 149.531 33.32C148.011 33.32 146.811 32.88 145.931 32.04C145.051 31.2 144.611 29.72 144.611 27.56V15.76H142.411V14.04C143.211 14 143.891 13.8 144.411 13.48C144.931 13.16 145.371 12.76 145.651 12.4C145.931 12.08 146.171 11.6 146.411 11.04C146.651 10.48 146.851 9.76 147.011 8.92H150.051V13.44H153.851V15.72H150.051V27.12C150.051 28.2 150.171 29 150.411 29.52C150.691 30 151.171 30.24 151.851 30.24C152.251 30.24 152.651 30.2 153.051 30.16C153.451 30.08 153.771 30 154.091 29.92V32.36Z" fill="white"/>
</g>
<defs>
<clipPath id="clip0_786_25748">
<rect width="308.8" height="40" fill="white" transform="translate(0.53125)"/>
</clipPath>
</defs>
</svg>